# Blender v2.76 (sub 0) OBJ File: 'scene merged.blend'
# www.blender.org
mtllib bulbHolderInside.mtl
o bulbHolderInside_Cylinder.007
v 1.488074 2.984146 1.290942
v 1.514797 2.986832 1.290121
v 1.540352 2.994772 1.287693
v 1.563622 3.007620 1.283765
v 1.583590 3.024814 1.278508
v 1.599384 3.045602 1.272153
v 1.610313 3.069077 1.264976
v 1.615899 3.094211 1.257292
v 1.615899 3.119907 1.249436
v 1.610313 3.145041 1.241751
v 1.599384 3.168515 1.234574
v 1.583590 3.189304 1.228219
v 1.563622 3.206497 1.222962
v 1.540352 3.219345 1.219034
v 1.514797 3.227286 1.216606
v 1.488074 3.229972 1.215785
v 1.461351 3.227286 1.216606
v 1.435796 3.219345 1.219034
v 1.412526 3.206497 1.222962
v 1.392558 3.189303 1.228219
v 1.376765 3.168515 1.234574
v 1.365836 3.145041 1.241751
v 1.360249 3.119906 1.249436
v 1.360249 3.094211 1.257292
v 1.365836 3.069077 1.264976
v 1.376765 3.045602 1.272153
v 1.392558 3.024814 1.278508
v 1.412526 3.007620 1.283765
v 1.435797 2.994772 1.287693
v 1.461351 2.986832 1.290121
v 1.488074 3.303897 1.000147
v 1.488074 2.802275 1.153508
v 1.542603 3.298416 1.001823
v 1.433545 3.298416 1.001823
v 1.594750 3.282213 1.006777
v 1.381399 3.282213 1.006777
v 1.333915 3.255996 1.014792
v 1.293169 3.220911 1.025519
v 1.260941 3.178492 1.038488
v 1.238640 3.130591 1.053132
v 1.227240 3.079303 1.068812
v 1.227240 3.026869 1.084843
v 1.238640 2.975581 1.100523
v 1.260941 2.927681 1.115168
v 1.293169 2.885261 1.128137
v 1.333915 2.850176 1.138864
v 1.381399 2.823959 1.146879
v 1.433545 2.807756 1.151833
v 1.542603 2.807756 1.151833
v 1.594750 2.823959 1.146879
v 1.642233 2.850176 1.138864
v 1.682980 2.885261 1.128137
v 1.715208 2.927681 1.115168
v 1.737509 2.975581 1.100523
v 1.748909 3.026869 1.084843
v 1.748909 3.079303 1.068812
v 1.737509 3.130591 1.053132
v 1.715208 3.178492 1.038487
v 1.682980 3.220912 1.025518
v 1.642233 3.255997 1.014792
vn 0.793600 -0.009600 -0.608400
vn -0.793600 -0.009600 -0.608400
vn -0.250700 -0.908800 -0.333400
vn -0.084800 -0.942500 -0.323100
vn -0.811300 -0.170900 -0.559000
vn 0.741200 0.144700 -0.655500
vn -0.793600 -0.332200 -0.509700
vn 0.656400 0.285100 -0.698500
vn 0.084800 -0.942500 -0.323100
vn 0.250700 -0.908800 -0.333400
vn -0.741200 -0.486500 -0.462600
vn 0.542900 0.405700 -0.735300
vn -0.656400 -0.627000 -0.419600
vn 0.405700 0.501000 -0.764500
vn 0.405700 -0.842800 -0.353600
vn -0.542900 -0.747500 -0.382800
vn 0.250700 0.567000 -0.784600
vn -0.405700 -0.842900 -0.353600
vn 0.084800 0.600700 -0.795000
vn 0.542900 -0.747500 -0.382800
vn -0.084800 0.600700 -0.795000
vn 0.656400 -0.627000 -0.419600
vn -0.250700 0.567000 -0.784600
vn -0.405700 0.501000 -0.764500
vn 0.741200 -0.486500 -0.462600
vn -0.542900 0.405700 -0.735300
vn 0.793600 -0.332200 -0.509700
vn -0.656400 0.285100 -0.698500
vn 0.811300 -0.170900 -0.559000
vn -0.741200 0.144700 -0.655500
vn 0.084800 0.600700 -0.794900
vn -0.084800 0.600700 -0.794900
usemtl None
s off
f 25//1 43//1 42//1
f 7//2 8//2 55//2
f 15//3 33//3 35//3
f 15//4 16//4 31//4
f 9//5 56//5 55//5
f 26//6 44//6 43//6
f 9//7 10//7 57//7
f 26//8 27//8 45//8
f 16//9 17//9 34//9
f 18//10 36//10 34//10
f 10//11 11//11 58//11
f 28//12 46//12 45//12
f 12//13 59//13 58//13
f 28//14 29//14 47//14
f 18//15 19//15 37//15
f 12//16 13//16 60//16
f 29//17 30//17 48//17
f 14//18 35//18 60//18
f 1//19 32//19 48//19
f 19//20 20//20 38//20
f 2//21 49//21 32//21
f 21//22 39//22 38//22
f 3//23 50//23 49//23
f 4//24 51//24 50//24
f 22//25 40//25 39//25
f 4//26 5//26 52//26
f 23//27 41//27 40//27
f 6//28 53//28 52//28
f 23//29 24//29 42//29
f 6//30 7//30 54//30
f 24//1 25//1 42//1
f 54//2 7//2 55//2
f 14//3 15//3 35//3
f 33//4 15//4 31//4
f 8//5 9//5 55//5
f 25//6 26//6 43//6
f 56//7 9//7 57//7
f 44//8 26//8 45//8
f 31//9 16//9 34//9
f 17//10 18//10 34//10
f 57//11 10//11 58//11
f 27//12 28//12 45//12
f 11//13 12//13 58//13
f 46//14 28//14 47//14
f 36//15 18//15 37//15
f 59//16 12//16 60//16
f 47//17 29//17 48//17
f 13//18 14//18 60//18
f 30//31 1//31 48//31
f 37//20 19//20 38//20
f 1//32 2//32 32//32
f 20//22 21//22 38//22
f 2//23 3//23 49//23
f 3//24 4//24 50//24
f 21//25 22//25 39//25
f 51//26 4//26 52//26
f 22//27 23//27 40//27
f 5//28 6//28 52//28
f 41//29 23//29 42//29
f 53//30 6//30 54//30
