# Blender v2.76 (sub 0) OBJ File: 'scene merged.blend'
# www.blender.org
mtllib emitter.mtl
o Circle
v 1.383598 6.433232 0.000000
v 1.383598 6.433232 -0.687685
v 1.517759 6.433232 -0.674472
v 1.646764 6.433232 -0.635338
v 1.765656 6.433232 -0.571789
v 1.869865 6.433232 -0.486267
v 1.955388 6.433232 -0.382057
v 2.018937 6.433232 -0.263166
v 2.058070 6.433232 -0.134161
v 2.071283 6.433232 -0.000000
v 2.058070 6.433232 0.134161
v 2.018937 6.433232 0.263166
v 1.955388 6.433232 0.382057
v 1.869865 6.433232 0.486267
v 1.765656 6.433232 0.571789
v 1.646764 6.433232 0.635338
v 1.517759 6.433232 0.674472
v 1.383598 6.433232 0.687685
v 1.249437 6.433232 0.674471
v 1.120432 6.433232 0.635338
v 1.001540 6.433232 0.571789
v 0.897331 6.433232 0.486267
v 0.811809 6.433232 0.382057
v 0.748260 6.433232 0.263165
v 0.709127 6.433232 0.134160
v 0.695913 6.433232 -0.000001
v 0.709127 6.433232 -0.134161
v 0.748260 6.433232 -0.263166
v 0.811809 6.433232 -0.382058
v 0.897332 6.433232 -0.486268
v 1.001541 6.433232 -0.571790
v 1.120433 6.433232 -0.635339
v 1.249439 6.433232 -0.674472
vn 0.000000 -1.000000 0.000000
usemtl None
s off
f 1//1 2//1 3//1
f 1//1 3//1 4//1
f 1//1 4//1 5//1
f 1//1 5//1 6//1
f 1//1 6//1 7//1
f 1//1 7//1 8//1
f 1//1 8//1 9//1
f 1//1 9//1 10//1
f 1//1 10//1 11//1
f 1//1 11//1 12//1
f 1//1 12//1 13//1
f 1//1 13//1 14//1
f 1//1 14//1 15//1
f 1//1 15//1 16//1
f 1//1 16//1 17//1
f 1//1 17//1 18//1
f 1//1 18//1 19//1
f 1//1 19//1 20//1
f 1//1 20//1 21//1
f 1//1 21//1 22//1
f 1//1 22//1 23//1
f 1//1 23//1 24//1
f 1//1 24//1 25//1
f 1//1 25//1 26//1
f 1//1 26//1 27//1
f 1//1 27//1 28//1
f 1//1 28//1 29//1
f 1//1 29//1 30//1
f 1//1 30//1 31//1
f 1//1 31//1 32//1
f 1//1 32//1 33//1
f 1//1 33//1 2//1
