# Blender v2.76 (sub 0) OBJ File: 'scene merged.blend'
# www.blender.org
mtllib emitterRightTest.mtl
o emitter.001_Circle.004
v 2.041648 6.809226 -2.901118
v 1.879639 6.809226 -2.917075
v 1.723856 6.809226 -2.964331
v 1.580285 6.809226 -3.041071
v 1.454444 6.809226 -3.144346
v 1.351170 6.809226 -3.270187
v 1.274430 6.809226 -3.413757
v 1.227173 6.809226 -3.569541
v 1.211217 6.809226 -3.731550
v 1.227173 6.809226 -3.893559
v 1.274430 6.809226 -4.049342
v 1.351170 6.809226 -4.192913
v 1.454444 6.809226 -4.318753
v 1.580285 6.809226 -4.422028
v 1.723856 6.809226 -4.498768
v 1.879639 6.809226 -4.546024
v 2.041648 6.809226 -4.561981
v 2.203657 6.809226 -4.546024
v 2.359441 6.809226 -4.498768
v 2.503011 6.809226 -4.422028
v 2.628852 6.809226 -4.318753
v 2.732127 6.809226 -4.192912
v 2.808867 6.809226 -4.049341
v 2.856123 6.809226 -3.893558
v 2.872079 6.809226 -3.731549
v 2.856122 6.809226 -3.569540
v 2.808866 6.809226 -3.413756
v 2.732126 6.809226 -3.270186
v 2.628851 6.809226 -3.144345
v 2.503010 6.809226 -3.041070
v 2.359439 6.809226 -2.964331
v 2.203656 6.809226 -2.917074
vn 0.000000 -1.000000 0.000000
usemtl None
s off
f 17//1 25//1 1//1
f 1//1 2//1 3//1
f 3//1 4//1 5//1
f 5//1 6//1 7//1
f 7//1 8//1 9//1
f 9//1 10//1 11//1
f 11//1 12//1 13//1
f 13//1 14//1 15//1
f 15//1 16//1 17//1
f 17//1 18//1 19//1
f 19//1 20//1 17//1
f 21//1 22//1 23//1
f 23//1 24//1 25//1
f 25//1 26//1 29//1
f 27//1 28//1 29//1
f 29//1 30//1 31//1
f 31//1 32//1 1//1
f 1//1 3//1 5//1
f 5//1 7//1 9//1
f 9//1 11//1 17//1
f 13//1 15//1 17//1
f 17//1 20//1 21//1
f 21//1 23//1 17//1
f 26//1 27//1 29//1
f 29//1 31//1 1//1
f 1//1 5//1 17//1
f 11//1 13//1 17//1
f 17//1 23//1 25//1
f 25//1 29//1 1//1
f 5//1 9//1 17//1
