# Blender v2.76 (sub 0) OBJ File: 'scene merged.blend'
# www.blender.org
mtllib hour.mtl
o hour_Line009
v 0.179235 4.585302 -1.982669
v 0.179107 4.554177 -1.972293
v 0.173218 4.027031 -2.399458
v 0.173196 4.021678 -2.397659
v 0.173173 4.016234 -2.396032
v 0.173146 4.010607 -2.394747
v 0.173114 4.004707 -2.393977
v 0.173076 3.998443 -2.393892
v 0.173030 3.991723 -2.394665
v 0.172974 3.984456 -2.396466
v 0.172916 3.977589 -2.399002
v 0.172864 3.971973 -2.401821
v 0.172817 3.967374 -2.404862
v 0.172773 3.963557 -2.408062
v 0.172733 3.960290 -2.411360
v 0.172694 3.957337 -2.414693
v 0.172656 3.954464 -2.418000
v 0.172619 3.951822 -2.421332
v 0.172584 3.949669 -2.424765
v 0.172552 3.947932 -2.428264
v 0.172522 3.946540 -2.431798
v 0.172493 3.945420 -2.435333
v 0.172466 3.944500 -2.438838
v 0.172440 3.943707 -2.442279
v 0.172415 3.943163 -2.445660
v 0.172393 3.942970 -2.449009
v 0.172373 3.943033 -2.452336
v 0.172354 3.943257 -2.455648
v 0.172336 3.943544 -2.458955
v 0.172317 3.943799 -2.462264
v 0.172297 3.943927 -2.465585
v 0.170970 3.827927 -2.564607
v 0.170935 3.859053 -2.601392
v 0.172240 3.974189 -2.505121
v 0.172257 3.978087 -2.506272
v 0.172272 3.981920 -2.507623
v 0.172287 3.985738 -2.509025
v 0.172303 3.989588 -2.510326
v 0.172321 3.993518 -2.511377
v 0.172342 3.997578 -2.512026
v 0.172367 4.001816 -2.512123
v 0.172398 4.006354 -2.511737
v 0.172432 4.011189 -2.511022
v 0.172469 4.016182 -2.509962
v 0.172509 4.021197 -2.508539
v 0.172550 4.026096 -2.506737
v 0.172592 4.030740 -2.504536
v 0.172635 4.034992 -2.501921
v 0.172679 4.038983 -2.498745
v 0.172726 4.042879 -2.494976
v 0.172775 4.046595 -2.490765
v 0.172824 4.050046 -2.486263
v 0.172872 4.053147 -2.481621
v 0.172917 4.055813 -2.476989
v 0.172958 4.057959 -2.472518
v 0.172994 4.059440 -2.468142
v 0.173027 4.060281 -2.463703
v 0.173057 4.060658 -2.459219
v 0.173085 4.060745 -2.454706
v 0.173113 4.060715 -2.450181
v 0.173141 4.060744 -2.445663
v 0.173170 4.061005 -2.441167
v 0.179037 4.584360 -2.013795
v 0.187215 4.585253 -1.982718
v 0.187087 4.554128 -1.972343
v 0.181197 4.026982 -2.399507
v 0.181175 4.021629 -2.397708
v 0.181152 4.016185 -2.396081
v 0.181125 4.010558 -2.394796
v 0.181093 4.004658 -2.394026
v 0.181055 3.998394 -2.393941
v 0.181009 3.991673 -2.394714
v 0.180953 3.984406 -2.396516
v 0.180895 3.977540 -2.399051
v 0.180843 3.971924 -2.401870
v 0.180796 3.967324 -2.404911
v 0.180753 3.963508 -2.408111
v 0.180712 3.960240 -2.411409
v 0.180673 3.957287 -2.414742
v 0.180635 3.954415 -2.418049
v 0.180598 3.951772 -2.421381
v 0.180564 3.949619 -2.424814
v 0.180531 3.947883 -2.428313
v 0.180501 3.946491 -2.431847
v 0.180472 3.945371 -2.435382
v 0.180445 3.944451 -2.438887
v 0.180419 3.943658 -2.442328
v 0.180395 3.943114 -2.445709
v 0.180373 3.942921 -2.449058
v 0.180353 3.942984 -2.452385
v 0.180334 3.943207 -2.455697
v 0.180315 3.943495 -2.459004
v 0.180296 3.943750 -2.462314
v 0.180276 3.943877 -2.465635
v 0.178949 3.827878 -2.564656
v 0.178915 3.859004 -2.601441
v 0.180219 3.974139 -2.505170
v 0.180236 3.978038 -2.506321
v 0.180251 3.981871 -2.507673
v 0.180266 3.985689 -2.509074
v 0.180282 3.989538 -2.510375
v 0.180300 3.993469 -2.511426
v 0.180321 3.997529 -2.512075
v 0.180346 4.001767 -2.512172
v 0.180377 4.006305 -2.511786
v 0.180411 4.011139 -2.511071
v 0.180448 4.016133 -2.510011
v 0.180488 4.021148 -2.508589
v 0.180530 4.026046 -2.506786
v 0.180572 4.030691 -2.504586
v 0.180614 4.034943 -2.501970
v 0.180658 4.038934 -2.498794
v 0.180706 4.042830 -2.495025
v 0.180755 4.046546 -2.490814
v 0.180804 4.049996 -2.486312
v 0.180851 4.053098 -2.481670
v 0.180896 4.055764 -2.477038
v 0.180937 4.057910 -2.472568
v 0.180973 4.059391 -2.468191
v 0.181006 4.060232 -2.463752
v 0.181036 4.060609 -2.459268
v 0.181064 4.060696 -2.454755
v 0.181092 4.060666 -2.450231
v 0.181120 4.060695 -2.445712
v 0.181150 4.060956 -2.441217
v 0.187017 4.584311 -2.013844
vn 0.007800 0.316200 0.948700
vn 0.000900 -0.629600 0.776900
vn 0.007900 0.318500 0.947900
vn 0.007800 0.318500 0.947900
vn 0.007700 0.286400 0.958100
vn 0.007400 0.222600 0.974900
vn 0.007400 0.222500 0.974900
vn 0.006900 0.129400 0.991600
vn 0.007000 0.129400 0.991600
vn 0.006300 0.013500 0.999900
vn 0.006200 0.013400 0.999900
vn 0.005400 -0.114300 0.993400
vn 0.004600 -0.240700 0.970600
vn 0.004500 -0.240600 0.970600
vn 0.003700 -0.346400 0.938100
vn 0.003600 -0.346400 0.938100
vn 0.002700 -0.448700 0.893700
vn 0.002800 -0.448600 0.893700
vn 0.001700 -0.551500 0.834200
vn 0.001800 -0.551600 0.834100
vn 0.000700 -0.642600 0.766200
vn 0.000800 -0.642500 0.766300
vn -0.000100 -0.710300 0.703900
vn -0.000100 -0.710400 0.703800
vn -0.000600 -0.748600 0.663000
vn -0.000600 -0.748400 0.663200
vn -0.000600 -0.754900 0.655900
vn -0.000600 -0.754800 0.655900
vn -0.001000 -0.783600 0.621300
vn -0.001000 -0.783700 0.621100
vn -0.001900 -0.847100 0.531400
vn -0.002000 -0.847100 0.531400
vn -0.002700 -0.895700 0.444600
vn -0.002800 -0.895800 0.444500
vn -0.003500 -0.930500 0.366300
vn -0.003500 -0.930300 0.366700
vn -0.004000 -0.953300 0.301900
vn -0.004000 -0.953300 0.302100
vn -0.004400 -0.967200 0.254100
vn -0.004400 -0.967200 0.254000
vn -0.004700 -0.974500 0.224500
vn -0.004600 -0.974500 0.224500
vn -0.005100 -0.987300 0.159000
vn -0.005100 -0.987300 0.159100
vn -0.005800 -0.998300 0.057300
vn -0.005800 -0.998300 0.057400
vn -0.006300 -0.999800 -0.019100
vn -0.006300 -0.999800 -0.018800
vn -0.006600 -0.997700 -0.067200
vn -0.006600 -0.997700 -0.067300
vn -0.006700 -0.996200 -0.086400
vn -0.006700 -0.996200 -0.086300
vn -0.006600 -0.997000 -0.077100
vn -0.006600 -0.997000 -0.077000
vn -0.006400 -0.999200 -0.038500
vn -0.006400 -0.999300 -0.038100
vn 0.000600 -0.649300 0.760600
vn 0.000700 -0.649300 0.760600
vn -0.008700 -0.763400 -0.645900
vn -0.000800 0.641500 -0.767200
vn -0.000700 0.641500 -0.767200
vn -0.007700 -0.283100 -0.959100
vn -0.007800 -0.283100 -0.959100
vn -0.007900 -0.332300 -0.943100
vn -0.007900 -0.332400 -0.943100
vn -0.007900 -0.344700 -0.938700
vn -0.007900 -0.320100 -0.947300
vn -0.007800 -0.320200 -0.947300
vn -0.007600 -0.258100 -0.966100
vn -0.007600 -0.258200 -0.966100
vn -0.007100 -0.157900 -0.987400
vn -0.006300 -0.023000 -0.999700
vn -0.006300 -0.022900 -0.999700
vn -0.005600 0.085000 -0.996400
vn -0.005600 0.084900 -0.996400
vn -0.005200 0.146200 -0.989200
vn -0.005200 0.146300 -0.989200
vn -0.004700 0.207700 -0.978200
vn -0.004800 0.207600 -0.978200
vn -0.004300 0.272900 -0.962000
vn -0.003700 0.345400 -0.938500
vn -0.003700 0.345400 -0.938400
vn -0.002900 0.428300 -0.903600
vn -0.003000 0.428200 -0.903700
vn -0.002000 0.524000 -0.851700
vn -0.002000 0.523800 -0.851800
vn -0.001000 0.622600 -0.782500
vn -0.000200 0.695300 -0.718700
vn -0.000100 0.695200 -0.718800
vn 0.000600 0.749800 -0.661700
vn 0.000500 0.749900 -0.661600
vn 0.001200 0.793700 -0.608200
vn 0.001200 0.793700 -0.608400
vn 0.001700 0.831600 -0.555400
vn 0.001800 0.831500 -0.555600
vn 0.002300 0.866700 -0.498800
vn 0.002300 0.866700 -0.498900
vn 0.002900 0.901400 -0.433000
vn 0.002900 0.901400 -0.432900
vn 0.003900 0.947200 -0.320500
vn 0.003800 0.947300 -0.320300
vn 0.004900 0.982400 -0.186600
vn 0.004900 0.982500 -0.186400
vn 0.005700 0.996500 -0.083800
vn 0.005600 0.996500 -0.083500
vn 0.006000 0.999800 -0.019200
vn 0.006100 0.999800 -0.019400
vn 0.006200 1.000000 0.006400
vn 0.006200 1.000000 0.006800
vn 0.006100 1.000000 -0.006200
vn 0.006100 1.000000 -0.006400
vn 0.005800 0.998300 -0.057600
vn 0.005800 0.998300 -0.058000
vn -0.000900 0.632500 -0.774600
vn 0.006000 0.999500 -0.030300
vn -1.000000 0.006200 0.006200
vn -1.000000 0.006100 0.006200
vn 1.000000 -0.006200 -0.006200
usemtl Material_#121.001
s off
f 1//1 2//1 65//1
f 1//1 65//1 64//1
f 2//2 3//2 66//2
f 2//2 66//2 65//2
f 3//3 4//3 67//3
f 3//4 67//4 66//4
f 4//5 5//5 68//5
f 4//5 68//5 67//5
f 5//6 6//6 69//6
f 5//7 69//7 68//7
f 6//8 7//8 70//8
f 6//9 70//9 69//9
f 7//10 8//10 71//10
f 7//11 71//11 70//11
f 8//12 9//12 72//12
f 8//12 72//12 71//12
f 9//13 10//13 73//13
f 9//14 73//14 72//14
f 10//15 11//15 74//15
f 10//16 74//16 73//16
f 11//17 12//17 75//17
f 11//18 75//18 74//18
f 12//19 13//19 76//19
f 12//20 76//20 75//20
f 13//21 14//21 77//21
f 13//22 77//22 76//22
f 14//23 15//23 78//23
f 14//24 78//24 77//24
f 15//25 16//25 79//25
f 15//26 79//26 78//26
f 16//27 17//27 80//27
f 16//28 80//28 79//28
f 17//29 18//29 81//29
f 17//30 81//30 80//30
f 18//31 19//31 82//31
f 18//32 82//32 81//32
f 19//33 20//33 83//33
f 19//34 83//34 82//34
f 20//35 21//35 84//35
f 20//36 84//36 83//36
f 21//37 22//37 85//37
f 21//38 85//38 84//38
f 22//39 23//39 86//39
f 22//40 86//40 85//40
f 23//41 24//41 87//41
f 23//42 87//42 86//42
f 24//43 25//43 88//43
f 24//44 88//44 87//44
f 25//45 26//45 89//45
f 25//46 89//46 88//46
f 26//47 27//47 90//47
f 26//48 90//48 89//48
f 27//49 28//49 91//49
f 27//50 91//50 90//50
f 28//51 29//51 92//51
f 28//52 92//52 91//52
f 29//53 30//53 93//53
f 29//54 93//54 92//54
f 30//55 31//55 94//55
f 30//56 94//56 93//56
f 31//57 32//57 95//57
f 31//58 95//58 94//58
f 32//59 33//59 96//59
f 32//59 96//59 95//59
f 33//60 34//60 97//60
f 33//61 97//61 96//61
f 34//62 35//62 98//62
f 34//63 98//63 97//63
f 35//64 36//64 99//64
f 35//65 99//65 98//65
f 36//66 37//66 100//66
f 36//66 100//66 99//66
f 37//67 38//67 101//67
f 37//68 101//68 100//68
f 38//69 39//69 102//69
f 38//70 102//70 101//70
f 39//71 40//71 103//71
f 39//71 103//71 102//71
f 40//72 41//72 104//72
f 40//73 104//73 103//73
f 41//74 42//74 105//74
f 41//75 105//75 104//75
f 42//76 43//76 106//76
f 42//77 106//77 105//77
f 43//78 44//78 107//78
f 43//79 107//79 106//79
f 44//80 45//80 108//80
f 44//80 108//80 107//80
f 45//81 46//81 109//81
f 45//82 109//82 108//82
f 46//83 47//83 110//83
f 46//84 110//84 109//84
f 47//85 48//85 111//85
f 47//86 111//86 110//86
f 48//87 49//87 112//87
f 48//87 112//87 111//87
f 49//88 50//88 113//88
f 49//89 113//89 112//89
f 50//90 51//90 114//90
f 50//91 114//91 113//91
f 51//92 52//92 115//92
f 51//93 115//93 114//93
f 52//94 53//94 116//94
f 52//95 116//95 115//95
f 53//96 54//96 117//96
f 53//97 117//97 116//97
f 54//98 55//98 118//98
f 54//99 118//99 117//99
f 55//100 56//100 119//100
f 55//101 119//101 118//101
f 56//102 57//102 120//102
f 56//103 120//103 119//103
f 57//104 58//104 121//104
f 57//105 121//105 120//105
f 58//106 59//106 122//106
f 58//107 122//107 121//107
f 59//108 60//108 123//108
f 59//109 123//109 122//109
f 60//110 61//110 124//110
f 60//111 124//111 123//111
f 61//112 62//112 125//112
f 61//113 125//113 124//113
f 62//114 63//114 126//114
f 62//114 126//114 125//114
f 63//115 1//115 64//115
f 63//115 64//115 126//115
f 31//116 33//116 32//116
f 31//116 34//116 33//116
f 1//116 63//116 2//116
f 63//116 3//116 2//116
f 62//116 3//116 63//116
f 61//116 3//116 62//116
f 60//116 3//116 61//116
f 60//116 4//116 3//116
f 60//116 5//116 4//116
f 59//116 5//116 60//116
f 59//116 6//116 5//116
f 59//116 7//116 6//116
f 59//116 8//116 7//116
f 59//116 9//116 8//116
f 59//116 10//116 9//116
f 59//116 11//116 10//116
f 59//116 12//116 11//116
f 59//116 13//116 12//116
f 59//116 14//116 13//116
f 59//116 15//116 14//116
f 59//116 16//116 15//116
f 59//116 17//116 16//116
f 58//116 17//116 59//116
f 57//116 17//116 58//116
f 56//116 17//116 57//116
f 55//116 17//116 56//116
f 54//116 17//116 55//116
f 53//116 17//116 54//116
f 52//116 17//116 53//116
f 51//116 17//116 52//116
f 50//116 17//116 51//116
f 49//116 17//116 50//116
f 48//116 17//116 49//116
f 47//116 17//116 48//116
f 46//116 17//116 47//116
f 45//116 17//116 46//116
f 44//116 17//116 45//116
f 43//116 17//116 44//116
f 42//116 17//116 43//116
f 41//116 17//116 42//116
f 40//116 17//116 41//116
f 39//116 17//116 40//116
f 38//116 17//116 39//116
f 37//116 17//116 38//116
f 36//116 17//116 37//116
f 35//116 17//116 36//116
f 35//116 18//116 17//116
f 35//116 19//116 18//116
f 35//116 20//116 19//116
f 35//116 21//116 20//116
f 35//116 22//116 21//116
f 35//116 23//116 22//116
f 35//116 24//116 23//116
f 35//116 25//116 24//116
f 35//116 26//116 25//116
f 35//116 27//116 26//116
f 35//117 28//117 27//117
f 35//116 29//116 28//116
f 35//116 30//116 29//116
f 34//116 30//116 35//116
f 31//116 30//116 34//116
f 94//118 95//118 96//118
f 94//118 96//118 97//118
f 126//118 64//118 65//118
f 126//118 65//118 66//118
f 125//118 126//118 66//118
f 124//118 125//118 66//118
f 123//118 124//118 66//118
f 123//118 66//118 67//118
f 123//118 67//118 68//118
f 122//118 123//118 68//118
f 122//118 68//118 69//118
f 122//118 69//118 70//118
f 122//118 70//118 71//118
f 122//118 71//118 72//118
f 122//118 72//118 73//118
f 122//118 73//118 74//118
f 122//118 74//118 75//118
f 122//118 75//118 76//118
f 122//118 76//118 77//118
f 122//118 77//118 78//118
f 122//118 78//118 79//118
f 122//118 79//118 80//118
f 121//118 122//118 80//118
f 120//118 121//118 80//118
f 119//118 120//118 80//118
f 118//118 119//118 80//118
f 117//118 118//118 80//118
f 116//118 117//118 80//118
f 115//118 116//118 80//118
f 114//118 115//118 80//118
f 113//118 114//118 80//118
f 112//118 113//118 80//118
f 111//118 112//118 80//118
f 110//118 111//118 80//118
f 109//118 110//118 80//118
f 108//118 109//118 80//118
f 107//118 108//118 80//118
f 106//118 107//118 80//118
f 105//118 106//118 80//118
f 104//118 105//118 80//118
f 103//118 104//118 80//118
f 102//118 103//118 80//118
f 101//118 102//118 80//118
f 100//118 101//118 80//118
f 99//118 100//118 80//118
f 98//118 99//118 80//118
f 98//118 80//118 81//118
f 98//118 81//118 82//118
f 98//118 82//118 83//118
f 98//118 83//118 84//118
f 98//118 84//118 85//118
f 98//118 85//118 86//118
f 98//118 86//118 87//118
f 98//118 87//118 88//118
f 98//118 88//118 89//118
f 98//118 89//118 90//118
f 98//118 90//118 91//118
f 98//118 91//118 92//118
f 98//118 92//118 93//118
f 97//118 98//118 93//118
f 94//118 97//118 93//118
