# Blender v2.76 (sub 0) OBJ File: 'scene merged.blend'
# www.blender.org
mtllib hour.mtl
o hour_Line009
v 0.165373 4.637998 0.243938
v 0.165290 4.617763 0.250683
v 0.161462 4.275067 -0.027016
v 0.161447 4.271586 -0.025846
v 0.161432 4.268047 -0.024788
v 0.161415 4.264389 -0.023953
v 0.161394 4.260554 -0.023453
v 0.161369 4.256481 -0.023398
v 0.161339 4.252112 -0.023900
v 0.161303 4.247388 -0.025071
v 0.161265 4.242924 -0.026719
v 0.161231 4.239273 -0.028552
v 0.161201 4.236283 -0.030529
v 0.161172 4.233802 -0.032610
v 0.161146 4.231678 -0.034753
v 0.161121 4.229758 -0.036920
v 0.161096 4.227890 -0.039070
v 0.161072 4.226173 -0.041236
v 0.161050 4.224773 -0.043468
v 0.161029 4.223644 -0.045743
v 0.161009 4.222739 -0.048040
v 0.160990 4.222011 -0.050338
v 0.160972 4.221413 -0.052617
v 0.160956 4.220898 -0.054854
v 0.160940 4.220544 -0.057052
v 0.160926 4.220418 -0.059229
v 0.160912 4.220459 -0.061392
v 0.160900 4.220605 -0.063545
v 0.160888 4.220791 -0.065695
v 0.160876 4.220957 -0.067846
v 0.160863 4.221040 -0.070005
v 0.160000 4.145629 -0.134379
v 0.159978 4.165864 -0.158293
v 0.160826 4.240714 -0.095707
v 0.160837 4.243248 -0.096456
v 0.160847 4.245740 -0.097334
v 0.160856 4.248222 -0.098245
v 0.160867 4.250724 -0.099091
v 0.160878 4.253280 -0.099774
v 0.160892 4.255919 -0.100196
v 0.160908 4.258674 -0.100260
v 0.160928 4.261624 -0.100008
v 0.160950 4.264767 -0.099544
v 0.160975 4.268013 -0.098855
v 0.161001 4.271274 -0.097930
v 0.161027 4.274458 -0.096758
v 0.161055 4.277478 -0.095327
v 0.161082 4.280242 -0.093627
v 0.161111 4.282836 -0.091562
v 0.161142 4.285369 -0.089112
v 0.161174 4.287785 -0.086375
v 0.161206 4.290028 -0.083448
v 0.161237 4.292044 -0.080430
v 0.161266 4.293777 -0.077419
v 0.161293 4.295173 -0.074512
v 0.161316 4.296135 -0.071667
v 0.161337 4.296682 -0.068781
v 0.161357 4.296927 -0.065866
v 0.161375 4.296984 -0.062932
v 0.161393 4.296965 -0.059991
v 0.161411 4.296983 -0.057054
v 0.161431 4.297153 -0.054131
v 0.165245 4.637385 0.223703
v 0.170561 4.637966 0.243906
v 0.170478 4.617731 0.250651
v 0.166649 4.275035 -0.027048
v 0.166635 4.271554 -0.025878
v 0.166619 4.268015 -0.024820
v 0.166602 4.264357 -0.023985
v 0.166581 4.260522 -0.023485
v 0.166557 4.256449 -0.023430
v 0.166526 4.252080 -0.023932
v 0.166490 4.247356 -0.025103
v 0.166452 4.242892 -0.026751
v 0.166419 4.239241 -0.028584
v 0.166388 4.236251 -0.030561
v 0.166360 4.233770 -0.032642
v 0.166333 4.231646 -0.034785
v 0.166308 4.229726 -0.036952
v 0.166283 4.227859 -0.039102
v 0.166259 4.226141 -0.041268
v 0.166237 4.224741 -0.043500
v 0.166216 4.223612 -0.045775
v 0.166196 4.222707 -0.048072
v 0.166178 4.221979 -0.050370
v 0.166160 4.221381 -0.052649
v 0.166143 4.220866 -0.054886
v 0.166127 4.220511 -0.057084
v 0.166113 4.220387 -0.059261
v 0.166100 4.220428 -0.061424
v 0.166087 4.220572 -0.063577
v 0.166075 4.220759 -0.065727
v 0.166063 4.220925 -0.067878
v 0.166050 4.221008 -0.070037
v 0.165188 4.145597 -0.134411
v 0.165165 4.165833 -0.158325
v 0.166013 4.240682 -0.095739
v 0.166024 4.243216 -0.096488
v 0.166034 4.245708 -0.097366
v 0.166044 4.248190 -0.098277
v 0.166054 4.250692 -0.099123
v 0.166065 4.253248 -0.099806
v 0.166079 4.255887 -0.100228
v 0.166096 4.258642 -0.100292
v 0.166116 4.261592 -0.100040
v 0.166138 4.264735 -0.099576
v 0.166162 4.267982 -0.098887
v 0.166188 4.271242 -0.097962
v 0.166215 4.274426 -0.096790
v 0.166242 4.277445 -0.095359
v 0.166270 4.280210 -0.093659
v 0.166299 4.282804 -0.091594
v 0.166329 4.285337 -0.089144
v 0.166361 4.287753 -0.086407
v 0.166393 4.289996 -0.083480
v 0.166424 4.292012 -0.080462
v 0.166453 4.293746 -0.077451
v 0.166480 4.295141 -0.074544
v 0.166503 4.296103 -0.071699
v 0.166525 4.296650 -0.068813
v 0.166544 4.296896 -0.065898
v 0.166563 4.296952 -0.062964
v 0.166581 4.296933 -0.060023
v 0.166599 4.296951 -0.057086
v 0.166618 4.297121 -0.054163
v 0.170432 4.637353 0.223671
vn 0.007800 0.316200 0.948700
vn 0.000900 -0.629600 0.776900
vn 0.007800 0.318500 0.947900
vn 0.007800 0.318400 0.947900
vn 0.007700 0.286400 0.958100
vn 0.007400 0.222500 0.974900
vn 0.007400 0.222600 0.974900
vn 0.006900 0.129400 0.991600
vn 0.006900 0.129500 0.991600
vn 0.006300 0.013400 0.999900
vn 0.005400 -0.114300 0.993400
vn 0.004500 -0.240700 0.970600
vn 0.003700 -0.346300 0.938100
vn 0.002800 -0.448700 0.893700
vn 0.001700 -0.551400 0.834200
vn 0.001800 -0.551700 0.834000
vn 0.000800 -0.642700 0.766100
vn 0.000800 -0.642600 0.766200
vn -0.000000 -0.710200 0.704000
vn -0.000000 -0.710300 0.703900
vn -0.000600 -0.748400 0.663200
vn -0.000500 -0.748500 0.663100
vn -0.000600 -0.755000 0.655800
vn -0.000700 -0.754900 0.655800
vn -0.001000 -0.783700 0.621100
vn -0.001000 -0.783500 0.621400
vn -0.001900 -0.847100 0.531400
vn -0.001900 -0.847100 0.531500
vn -0.002800 -0.895800 0.444500
vn -0.002800 -0.895600 0.444800
vn -0.003500 -0.930200 0.367000
vn -0.003500 -0.930500 0.366200
vn -0.004000 -0.953300 0.302000
vn -0.004000 -0.953300 0.301900
vn -0.004500 -0.967300 0.253700
vn -0.004400 -0.967100 0.254200
vn -0.004600 -0.974400 0.224900
vn -0.004700 -0.974500 0.224300
vn -0.005200 -0.987300 0.158700
vn -0.005100 -0.987300 0.159100
vn -0.005800 -0.998300 0.057300
vn -0.005900 -0.998300 0.057500
vn -0.006300 -0.999800 -0.019600
vn -0.006300 -0.999800 -0.018400
vn -0.006700 -0.997700 -0.067200
vn -0.006600 -0.997700 -0.067000
vn -0.006700 -0.996200 -0.086500
vn -0.006800 -0.996200 -0.086600
vn -0.006600 -0.997000 -0.077200
vn -0.006600 -0.997000 -0.077000
vn -0.006400 -0.999200 -0.039200
vn -0.006400 -0.999300 -0.037600
vn 0.000600 -0.649300 0.760600
vn 0.000700 -0.649300 0.760600
vn -0.008700 -0.763400 -0.645900
vn -0.008800 -0.763300 -0.645900
vn -0.000800 0.641500 -0.767200
vn -0.000800 0.641500 -0.767100
vn -0.007700 -0.283000 -0.959100
vn -0.007700 -0.283200 -0.959000
vn -0.007900 -0.332500 -0.943100
vn -0.007900 -0.332300 -0.943100
vn -0.007900 -0.344600 -0.938700
vn -0.007900 -0.344500 -0.938700
vn -0.007800 -0.320300 -0.947300
vn -0.007800 -0.320200 -0.947300
vn -0.007500 -0.258200 -0.966100
vn -0.007600 -0.258200 -0.966100
vn -0.007100 -0.157800 -0.987400
vn -0.007100 -0.157900 -0.987400
vn -0.006300 -0.022900 -0.999700
vn -0.006300 -0.023000 -0.999700
vn -0.005600 0.084900 -0.996400
vn -0.005600 0.085000 -0.996400
vn -0.005200 0.146200 -0.989200
vn -0.004800 0.207600 -0.978200
vn -0.004800 0.207700 -0.978200
vn -0.004300 0.273000 -0.962000
vn -0.003700 0.345300 -0.938500
vn -0.002900 0.428100 -0.903700
vn -0.002900 0.428300 -0.903600
vn -0.002000 0.524100 -0.851700
vn -0.002000 0.523800 -0.851800
vn -0.001000 0.622600 -0.782600
vn -0.000200 0.695400 -0.718600
vn 0.000500 0.750000 -0.661400
vn 0.000500 0.749600 -0.661900
vn 0.001100 0.793700 -0.608300
vn 0.001100 0.793600 -0.608500
vn 0.001700 0.831600 -0.555400
vn 0.001700 0.831500 -0.555500
vn 0.002300 0.866700 -0.498800
vn 0.002900 0.901700 -0.432400
vn 0.002900 0.901300 -0.433100
vn 0.003900 0.947400 -0.320200
vn 0.003900 0.947200 -0.320700
vn 0.004900 0.982500 -0.186300
vn 0.004900 0.982500 -0.186400
vn 0.005600 0.996500 -0.083500
vn 0.005600 0.996400 -0.084200
vn 0.006000 0.999800 -0.018800
vn 0.006000 0.999800 -0.019600
vn 0.006200 1.000000 0.006300
vn 0.006200 1.000000 0.006500
vn 0.006200 1.000000 -0.006100
vn 0.006100 1.000000 -0.006500
vn 0.005800 0.998300 -0.057600
vn 0.005900 0.998300 -0.058100
vn -0.000800 0.632500 -0.774600
vn -0.000900 0.632500 -0.774600
vn 0.006100 0.999500 -0.030400
vn 0.006100 0.999500 -0.030300
vn -1.000000 0.006200 0.006200
vn 1.000000 -0.006200 -0.006200
usemtl Material_#121.001
s off
f 1//1 2//1 65//1
f 1//1 65//1 64//1
f 2//2 3//2 66//2
f 2//2 66//2 65//2
f 3//3 4//3 67//3
f 3//4 67//4 66//4
f 4//5 5//5 68//5
f 4//5 68//5 67//5
f 5//6 6//6 69//6
f 5//7 69//7 68//7
f 6//8 7//8 70//8
f 6//9 70//9 69//9
f 7//10 8//10 71//10
f 7//10 71//10 70//10
f 8//11 9//11 72//11
f 8//11 72//11 71//11
f 9//12 10//12 73//12
f 9//12 73//12 72//12
f 10//13 11//13 74//13
f 10//13 74//13 73//13
f 11//14 12//14 75//14
f 11//14 75//14 74//14
f 12//15 13//15 76//15
f 12//16 76//16 75//16
f 13//17 14//17 77//17
f 13//18 77//18 76//18
f 14//19 15//19 78//19
f 14//20 78//20 77//20
f 15//21 16//21 79//21
f 15//22 79//22 78//22
f 16//23 17//23 80//23
f 16//24 80//24 79//24
f 17//25 18//25 81//25
f 17//26 81//26 80//26
f 18//27 19//27 82//27
f 18//28 82//28 81//28
f 19//29 20//29 83//29
f 19//30 83//30 82//30
f 20//31 21//31 84//31
f 20//32 84//32 83//32
f 21//33 22//33 85//33
f 21//34 85//34 84//34
f 22//35 23//35 86//35
f 22//36 86//36 85//36
f 23//37 24//37 87//37
f 23//38 87//38 86//38
f 24//39 25//39 88//39
f 24//40 88//40 87//40
f 25//41 26//41 89//41
f 25//42 89//42 88//42
f 26//43 27//43 90//43
f 26//44 90//44 89//44
f 27//45 28//45 91//45
f 27//46 91//46 90//46
f 28//47 29//47 92//47
f 28//48 92//48 91//48
f 29//49 30//49 93//49
f 29//50 93//50 92//50
f 30//51 31//51 94//51
f 30//52 94//52 93//52
f 31//53 32//53 95//53
f 31//54 95//54 94//54
f 32//55 33//55 96//55
f 32//56 96//56 95//56
f 33//57 34//57 97//57
f 33//58 97//58 96//58
f 34//59 35//59 98//59
f 34//60 98//60 97//60
f 35//61 36//61 99//61
f 35//62 99//62 98//62
f 36//63 37//63 100//63
f 36//64 100//64 99//64
f 37//65 38//65 101//65
f 37//66 101//66 100//66
f 38//67 39//67 102//67
f 38//68 102//68 101//68
f 39//69 40//69 103//69
f 39//70 103//70 102//70
f 40//71 41//71 104//71
f 40//72 104//72 103//72
f 41//73 42//73 105//73
f 41//74 105//74 104//74
f 42//75 43//75 106//75
f 42//75 106//75 105//75
f 43//76 44//76 107//76
f 43//77 107//77 106//77
f 44//78 45//78 108//78
f 44//78 108//78 107//78
f 45//79 46//79 109//79
f 45//79 109//79 108//79
f 46//80 47//80 110//80
f 46//81 110//81 109//81
f 47//82 48//82 111//82
f 47//83 111//83 110//83
f 48//84 49//84 112//84
f 48//84 112//84 111//84
f 49//85 50//85 113//85
f 49//85 113//85 112//85
f 50//86 51//86 114//86
f 50//87 114//87 113//87
f 51//88 52//88 115//88
f 51//89 115//89 114//89
f 52//90 53//90 116//90
f 52//91 116//91 115//91
f 53//92 54//92 117//92
f 53//92 117//92 116//92
f 54//93 55//93 118//93
f 54//94 118//94 117//94
f 55//95 56//95 119//95
f 55//96 119//96 118//96
f 56//97 57//97 120//97
f 56//98 120//98 119//98
f 57//99 58//99 121//99
f 57//100 121//100 120//100
f 58//101 59//101 122//101
f 58//102 122//102 121//102
f 59//103 60//103 123//103
f 59//104 123//104 122//104
f 60//105 61//105 124//105
f 60//106 124//106 123//106
f 61//107 62//107 125//107
f 61//108 125//108 124//108
f 62//109 63//109 126//109
f 62//110 126//110 125//110
f 63//111 1//111 64//111
f 63//112 64//112 126//112
f 31//113 33//113 32//113
f 31//113 34//113 33//113
f 1//113 63//113 2//113
f 63//113 3//113 2//113
f 62//113 3//113 63//113
f 61//113 3//113 62//113
f 60//113 3//113 61//113
f 60//113 4//113 3//113
f 60//113 5//113 4//113
f 59//113 5//113 60//113
f 59//113 6//113 5//113
f 59//113 7//113 6//113
f 59//113 8//113 7//113
f 59//113 9//113 8//113
f 59//113 10//113 9//113
f 59//113 11//113 10//113
f 59//113 12//113 11//113
f 59//113 13//113 12//113
f 59//113 14//113 13//113
f 59//113 15//113 14//113
f 59//113 16//113 15//113
f 59//113 17//113 16//113
f 58//113 17//113 59//113
f 57//113 17//113 58//113
f 56//113 17//113 57//113
f 55//113 17//113 56//113
f 54//113 17//113 55//113
f 53//113 17//113 54//113
f 52//113 17//113 53//113
f 51//113 17//113 52//113
f 50//113 17//113 51//113
f 49//113 17//113 50//113
f 48//113 17//113 49//113
f 47//113 17//113 48//113
f 46//113 17//113 47//113
f 45//113 17//113 46//113
f 44//113 17//113 45//113
f 43//113 17//113 44//113
f 42//113 17//113 43//113
f 41//113 17//113 42//113
f 40//113 17//113 41//113
f 39//113 17//113 40//113
f 38//113 17//113 39//113
f 37//113 17//113 38//113
f 36//113 17//113 37//113
f 35//113 17//113 36//113
f 35//113 18//113 17//113
f 35//113 19//113 18//113
f 35//113 20//113 19//113
f 35//113 21//113 20//113
f 35//113 22//113 21//113
f 35//113 23//113 22//113
f 35//113 24//113 23//113
f 35//113 25//113 24//113
f 35//113 26//113 25//113
f 35//113 27//113 26//113
f 35//113 28//113 27//113
f 35//113 29//113 28//113
f 35//113 30//113 29//113
f 34//113 30//113 35//113
f 31//113 30//113 34//113
f 94//114 95//114 96//114
f 94//114 96//114 97//114
f 126//114 64//114 65//114
f 126//114 65//114 66//114
f 125//114 126//114 66//114
f 124//114 125//114 66//114
f 123//114 124//114 66//114
f 123//114 66//114 67//114
f 123//114 67//114 68//114
f 122//114 123//114 68//114
f 122//114 68//114 69//114
f 122//114 69//114 70//114
f 122//114 70//114 71//114
f 122//114 71//114 72//114
f 122//114 72//114 73//114
f 122//114 73//114 74//114
f 122//114 74//114 75//114
f 122//114 75//114 76//114
f 122//114 76//114 77//114
f 122//114 77//114 78//114
f 122//114 78//114 79//114
f 122//114 79//114 80//114
f 121//114 122//114 80//114
f 120//114 121//114 80//114
f 119//114 120//114 80//114
f 118//114 119//114 80//114
f 117//114 118//114 80//114
f 116//114 117//114 80//114
f 115//114 116//114 80//114
f 114//114 115//114 80//114
f 113//114 114//114 80//114
f 112//114 113//114 80//114
f 111//114 112//114 80//114
f 110//114 111//114 80//114
f 109//114 110//114 80//114
f 108//114 109//114 80//114
f 107//114 108//114 80//114
f 106//114 107//114 80//114
f 105//114 106//114 80//114
f 104//114 105//114 80//114
f 103//114 104//114 80//114
f 102//114 103//114 80//114
f 101//114 102//114 80//114
f 100//114 101//114 80//114
f 99//114 100//114 80//114
f 98//114 99//114 80//114
f 98//114 80//114 81//114
f 98//114 81//114 82//114
f 98//114 82//114 83//114
f 98//114 83//114 84//114
f 98//114 84//114 85//114
f 98//114 85//114 86//114
f 98//114 86//114 87//114
f 98//114 87//114 88//114
f 98//114 88//114 89//114
f 98//114 89//114 90//114
f 98//114 90//114 91//114
f 98//114 91//114 92//114
f 98//114 92//114 93//114
f 97//114 98//114 93//114
f 94//114 97//114 93//114
