# Blender v2.76 (sub 0) OBJ File: 'scene merged.blend'
# www.blender.org
mtllib LampRodRight.mtl
o lampPole.001_Cylinder.009
v 2.041652 4.725541 -3.763550
v 2.041652 8.632871 -3.763550
v 2.047895 4.725541 -3.762935
v 2.047895 8.632871 -3.762935
v 2.053898 4.725541 -3.761114
v 2.053898 8.632871 -3.761114
v 2.059430 4.725541 -3.758157
v 2.059430 8.632871 -3.758157
v 2.064279 4.725541 -3.754177
v 2.064279 8.632871 -3.754177
v 2.068259 4.725541 -3.749328
v 2.068259 8.632871 -3.749328
v 2.071216 4.725541 -3.743795
v 2.071216 8.632871 -3.743795
v 2.073037 4.725541 -3.737792
v 2.073037 8.632871 -3.737792
v 2.073652 4.725541 -3.731550
v 2.073652 8.632871 -3.731550
v 2.073037 4.725541 -3.725307
v 2.073037 8.632871 -3.725307
v 2.071216 4.725541 -3.719304
v 2.071216 8.632871 -3.719304
v 2.068259 4.725541 -3.713771
v 2.068259 8.632871 -3.713771
v 2.064279 4.725541 -3.708922
v 2.064279 8.632871 -3.708922
v 2.059430 4.725541 -3.704942
v 2.059430 8.632871 -3.704942
v 2.053898 4.725541 -3.701985
v 2.053898 8.632871 -3.701985
v 2.047895 4.725541 -3.700164
v 2.047895 8.632871 -3.700164
v 2.041652 4.725541 -3.699549
v 2.041652 8.632871 -3.699549
v 2.035409 4.725541 -3.700164
v 2.035409 8.632871 -3.700164
v 2.029406 4.725541 -3.701985
v 2.029406 8.632871 -3.701985
v 2.023874 4.725541 -3.704942
v 2.023874 8.632871 -3.704942
v 2.019024 4.725541 -3.708922
v 2.019024 8.632871 -3.708922
v 2.015045 4.725541 -3.713771
v 2.015045 8.632871 -3.713771
v 2.012088 4.725541 -3.719304
v 2.012088 8.632871 -3.719304
v 2.010267 4.725541 -3.725307
v 2.010267 8.632871 -3.725307
v 2.009652 4.725541 -3.731550
v 2.009652 8.632871 -3.731550
v 2.010267 4.725541 -3.737792
v 2.010267 8.632871 -3.737792
v 2.012088 4.725541 -3.743795
v 2.012088 8.632871 -3.743795
v 2.015045 4.725541 -3.749328
v 2.015045 8.632871 -3.749328
v 2.019024 4.725541 -3.754177
v 2.019024 8.632871 -3.754177
v 2.023874 4.725541 -3.758157
v 2.023874 8.632871 -3.758157
v 2.029406 4.725541 -3.761114
v 2.029406 8.632871 -3.761114
v 2.035409 4.725541 -3.762935
v 2.035409 8.632871 -3.762935
vn 0.098000 0.000000 -0.995200
vn 0.290300 0.000000 -0.956900
vn 0.471400 0.000000 -0.881900
vn 0.634400 0.000000 -0.773000
vn 0.773000 0.000000 -0.634400
vn 0.881900 0.000000 -0.471400
vn 0.956900 0.000000 -0.290300
vn 0.995200 0.000000 -0.098000
vn 0.995200 0.000000 0.098000
vn 0.956900 0.000000 0.290300
vn 0.881900 0.000000 0.471400
vn 0.773000 0.000000 0.634400
vn 0.634400 0.000000 0.773000
vn 0.471400 0.000000 0.881900
vn 0.290300 0.000000 0.956900
vn 0.098000 0.000000 0.995200
vn -0.098000 0.000000 0.995200
vn -0.290300 0.000000 0.956900
vn -0.471400 0.000000 0.881900
vn -0.634400 0.000000 0.773000
vn -0.773000 0.000000 0.634400
vn -0.881900 0.000000 0.471400
vn -0.956900 0.000000 0.290300
vn -0.995200 0.000000 0.098000
vn -0.995200 0.000000 -0.098000
vn -0.956900 0.000000 -0.290300
vn -0.881900 0.000000 -0.471400
vn -0.773000 0.000000 -0.634400
vn -0.634400 0.000000 -0.773000
vn -0.471400 0.000000 -0.881900
vn 0.000000 1.000000 -0.000000
vn -0.098000 0.000000 -0.995200
vn -0.290200 0.000000 -0.957000
vn 0.000000 -1.000000 0.000000
vn 0.000000 1.000000 0.001000
vn 0.000000 1.000000 -0.001300
vn 0.000000 1.000000 -0.001000
vn 0.000000 1.000000 -0.000500
vn 0.000000 1.000000 0.000100
vn 0.000000 1.000000 0.000500
vn 0.000000 1.000000 -0.000100
vn -0.290300 0.000000 -0.956900
vn 0.000000 -1.000000 -0.000500
vn 0.000000 -1.000000 -0.000300
vn 0.000000 -1.000000 -0.000200
vn 0.000000 -1.000000 0.000500
vn 0.000000 -1.000000 0.000200
usemtl None
s off
f 2//1 4//1 3//1
f 4//2 6//2 5//2
f 6//3 8//3 7//3
f 8//4 10//4 9//4
f 10//5 12//5 11//5
f 12//6 14//6 13//6
f 14//7 16//7 15//7
f 16//8 18//8 17//8
f 18//9 20//9 19//9
f 20//10 22//10 21//10
f 22//11 24//11 23//11
f 24//12 26//12 25//12
f 26//13 28//13 27//13
f 28//14 30//14 29//14
f 30//15 32//15 31//15
f 32//16 34//16 33//16
f 34//17 36//17 35//17
f 36//18 38//18 37//18
f 38//19 40//19 39//19
f 40//20 42//20 41//20
f 42//21 44//21 43//21
f 44//22 46//22 45//22
f 46//23 48//23 47//23
f 48//24 50//24 49//24
f 50//25 52//25 51//25
f 52//26 54//26 53//26
f 54//27 56//27 55//27
f 56//28 58//28 57//28
f 58//29 60//29 59//29
f 60//30 62//30 61//30
f 38//31 22//31 6//31
f 64//32 2//32 1//32
f 62//33 64//33 63//33
f 39//34 47//34 63//34
f 1//1 2//1 3//1
f 3//2 4//2 5//2
f 5//3 6//3 7//3
f 7//4 8//4 9//4
f 9//5 10//5 11//5
f 11//6 12//6 13//6
f 13//7 14//7 15//7
f 15//8 16//8 17//8
f 17//9 18//9 19//9
f 19//10 20//10 21//10
f 21//11 22//11 23//11
f 23//12 24//12 25//12
f 25//13 26//13 27//13
f 27//14 28//14 29//14
f 29//15 30//15 31//15
f 31//16 32//16 33//16
f 33//17 34//17 35//17
f 35//18 36//18 37//18
f 37//19 38//19 39//19
f 39//20 40//20 41//20
f 41//21 42//21 43//21
f 43//22 44//22 45//22
f 45//23 46//23 47//23
f 47//24 48//24 49//24
f 49//25 50//25 51//25
f 51//26 52//26 53//26
f 53//27 54//27 55//27
f 55//28 56//28 57//28
f 57//29 58//29 59//29
f 59//30 60//30 61//30
f 6//35 4//35 2//35
f 2//36 64//36 6//36
f 62//37 60//37 58//37
f 58//38 56//38 54//38
f 54//39 52//39 50//39
f 50//31 48//31 54//31
f 46//31 44//31 42//31
f 42//35 40//35 38//35
f 38//37 36//37 34//37
f 34//37 32//37 30//37
f 30//35 28//35 26//35
f 26//40 24//40 22//40
f 22//41 20//41 18//41
f 18//31 16//31 14//31
f 14//31 12//31 10//31
f 10//37 8//37 6//37
f 6//40 64//40 62//40
f 62//31 58//31 6//31
f 54//31 48//31 46//31
f 46//31 42//31 54//31
f 38//31 34//31 30//31
f 30//31 26//31 38//31
f 22//31 18//31 14//31
f 14//31 10//31 22//31
f 6//31 58//31 54//31
f 54//31 42//31 38//31
f 38//31 26//31 22//31
f 22//31 10//31 6//31
f 6//31 54//31 38//31
f 63//32 64//32 1//32
f 61//42 62//42 63//42
f 63//43 1//43 3//43
f 3//34 5//34 63//34
f 7//34 9//34 11//34
f 11//34 13//34 15//34
f 15//34 17//34 23//34
f 19//34 21//34 23//34
f 23//44 25//44 31//44
f 27//34 29//34 31//34
f 31//34 33//34 35//34
f 35//34 37//34 31//34
f 39//45 41//45 47//45
f 43//34 45//34 47//34
f 47//34 49//34 51//34
f 51//34 53//34 47//34
f 55//34 57//34 59//34
f 59//46 61//46 63//46
f 63//47 5//47 7//47
f 7//34 11//34 63//34
f 17//34 19//34 23//34
f 25//34 27//34 31//34
f 31//45 37//45 39//45
f 41//47 43//47 47//47
f 47//34 53//34 55//34
f 55//34 59//34 47//34
f 63//34 11//34 15//34
f 15//34 23//34 63//34
f 31//34 39//34 63//34
f 47//34 59//34 63//34
f 63//34 23//34 31//34
