# Blender v2.76 (sub 0) OBJ File: 'scene merged.blend'
# www.blender.org
mtllib LampRod2.mtl
o lamp3_Cylinder.004
v 1.500000 2.527498 1.772400
v 1.500000 3.306921 1.322400
v 1.501253 2.527538 1.772468
v 1.501253 3.306961 1.322468
v 1.502487 2.527655 1.772672
v 1.502487 3.307078 1.322672
v 1.503681 2.527849 1.773008
v 1.503681 3.307272 1.323008
v 1.504817 2.528117 1.773471
v 1.504817 3.307540 1.323471
v 1.505878 2.528453 1.774054
v 1.505878 3.307876 1.324054
v 1.506845 2.528853 1.774747
v 1.506845 3.308276 1.324747
v 1.507705 2.529311 1.775540
v 1.507705 3.308734 1.325540
v 1.508443 2.529819 1.776420
v 1.508443 3.309242 1.326420
v 1.509048 2.530369 1.777373
v 1.509048 3.309792 1.327373
v 1.509511 2.530953 1.778384
v 1.509511 3.310376 1.328384
v 1.509823 2.531561 1.779438
v 1.509823 3.310984 1.329437
v 1.509980 2.532184 1.780517
v 1.509980 3.311607 1.330517
v 1.509980 2.532812 1.781604
v 1.509980 3.312235 1.331604
v 1.509823 2.533435 1.782683
v 1.509823 3.312858 1.332683
v 1.509511 2.534043 1.783736
v 1.509511 3.313466 1.333736
v 1.509048 2.534627 1.784748
v 1.509048 3.314050 1.334748
v 1.508443 2.535177 1.785701
v 1.508443 3.314600 1.335701
v 1.507705 2.535686 1.786581
v 1.507705 3.315108 1.336581
v 1.506845 2.536143 1.787373
v 1.506845 3.315566 1.337373
v 1.505878 2.536543 1.788067
v 1.505878 3.315966 1.338067
v 1.504817 2.536880 1.788649
v 1.504817 3.316303 1.338649
v 1.503681 2.537147 1.789112
v 1.503681 3.316570 1.339112
v 1.502487 2.537341 1.789448
v 1.502487 3.316764 1.339448
v 1.501253 2.537459 1.789652
v 1.501253 3.316882 1.339652
v 1.500000 2.537498 1.789721
v 1.500000 3.316921 1.339721
v 1.498747 2.537459 1.789652
v 1.498747 3.316882 1.339652
v 1.497513 2.537341 1.789448
v 1.497513 3.316764 1.339448
v 1.496319 2.537147 1.789112
v 1.496319 3.316570 1.339112
v 1.495183 2.536880 1.788649
v 1.495183 3.316303 1.338649
v 1.494122 2.536543 1.788067
v 1.494122 3.315966 1.338067
v 1.493155 2.536143 1.787373
v 1.493155 3.315566 1.337373
v 1.492295 2.535686 1.786581
v 1.492295 3.315108 1.336581
v 1.491557 2.535177 1.785701
v 1.491557 3.314600 1.335701
v 1.490952 2.534627 1.784748
v 1.490952 3.314050 1.334748
v 1.490489 2.534043 1.783736
v 1.490489 3.313466 1.333736
v 1.490177 2.533435 1.782683
v 1.490177 3.312858 1.332683
v 1.490020 2.532812 1.781604
v 1.490020 3.312235 1.331604
v 1.490020 2.532184 1.780517
v 1.490020 3.311607 1.330517
v 1.490177 2.531561 1.779438
v 1.490177 3.310984 1.329437
v 1.490489 2.530953 1.778384
v 1.490489 3.310376 1.328384
v 1.490952 2.530369 1.777373
v 1.490952 3.309792 1.327373
v 1.491557 2.529819 1.776420
v 1.491557 3.309242 1.326420
v 1.492295 2.529311 1.775540
v 1.492295 3.308734 1.325540
v 1.493155 2.528853 1.774747
v 1.493155 3.308276 1.324747
v 1.494122 2.528453 1.774054
v 1.494122 3.307876 1.324054
v 1.495183 2.528117 1.773471
v 1.495183 3.307540 1.323471
v 1.496319 2.527849 1.773008
v 1.496319 3.307272 1.323008
v 1.497513 2.527655 1.772672
v 1.497513 3.307078 1.322672
v 1.498747 2.527538 1.772468
v 1.498747 3.306961 1.322468
vn 0.062900 -0.499100 -0.864300
vn 0.187500 -0.491100 -0.850700
vn 0.309000 -0.475500 -0.823700
vn 0.425900 -0.452500 -0.783500
vn 0.535800 -0.422200 -0.731200
vn 0.637400 -0.385300 -0.667300
vn 0.729000 -0.342200 -0.592800
vn 0.809100 -0.293800 -0.509000
vn 0.876300 -0.241000 -0.417200
vn 0.929800 -0.184000 -0.318800
vn 0.968600 -0.124300 -0.215400
vn 0.992100 -0.062700 -0.108600
vn 1.000000 0.000000 0.000000
vn 0.992100 0.062700 0.108600
vn 0.968600 0.124300 0.215400
vn 0.929800 0.184000 0.318700
vn 0.876300 0.240900 0.417200
vn 0.809000 0.293800 0.509000
vn 0.729000 0.342300 0.592800
vn 0.637600 0.385200 0.667200
vn 0.535800 0.422200 0.731200
vn 0.425700 0.452500 0.783600
vn 0.309100 0.475500 0.823600
vn 0.187300 0.491200 0.850700
vn 0.063100 0.499000 0.864300
vn -0.063100 0.499000 0.864300
vn -0.187300 0.491200 0.850700
vn -0.309000 0.475500 0.823700
vn -0.425600 0.452400 0.783700
vn -0.535700 0.422200 0.731300
vn -0.637400 0.385300 0.667300
vn -0.729000 0.342300 0.592800
vn -0.809000 0.293900 0.509100
vn -0.876300 0.240900 0.417200
vn -0.929800 0.184000 0.318700
vn -0.968600 0.124400 0.215400
vn -0.992100 0.062600 0.108600
vn -1.000000 0.000000 0.000000
vn -0.992100 -0.062600 -0.108600
vn -0.968600 -0.124300 -0.215400
vn -0.929800 -0.184100 -0.318800
vn -0.876300 -0.240900 -0.417200
vn -0.809000 -0.293900 -0.509100
vn -0.728900 -0.342300 -0.592900
vn -0.637400 -0.385300 -0.667300
vn -0.535900 -0.422100 -0.731200
vn -0.425900 -0.452400 -0.783600
vn -0.308900 -0.475500 -0.823700
vn 0.000000 0.866000 -0.500000
vn -0.062900 -0.499100 -0.864300
vn -0.187600 -0.491100 -0.850700
vn -0.000000 -0.866000 0.500000
vn 0.062900 -0.499000 -0.864300
vn 0.187300 -0.491200 -0.850700
vn 0.308800 -0.475600 -0.823700
vn 0.425800 -0.452300 -0.783700
vn 0.536000 -0.422100 -0.731200
vn 0.637300 -0.385300 -0.667300
vn 0.729000 -0.342300 -0.592800
vn 0.809000 -0.293900 -0.509100
vn 0.876300 -0.240800 -0.417200
vn 0.929700 -0.184200 -0.318800
vn 0.968600 -0.124400 -0.215400
vn 0.992100 -0.062800 -0.108600
vn 0.992100 0.062800 0.108600
vn 0.968600 0.124400 0.215400
vn 0.929800 0.184100 0.318800
vn 0.876200 0.241000 0.417300
vn 0.809100 0.293800 0.509000
vn 0.728900 0.342300 0.592900
vn 0.637300 0.385300 0.667300
vn 0.535800 0.422100 0.731300
vn 0.425700 0.452400 0.783600
vn 0.187300 0.491100 0.850700
vn 0.062600 0.499100 0.864300
vn -0.062600 0.499100 0.864300
vn -0.187300 0.491100 0.850700
vn -0.425900 0.452500 0.783500
vn -0.535900 0.422100 0.731100
vn -0.728900 0.342300 0.592900
vn -0.809100 0.293800 0.509000
vn -0.876200 0.241000 0.417300
vn -0.929800 0.184100 0.318800
vn -0.992100 0.062800 0.108600
vn -0.992100 -0.062800 -0.108600
vn -0.968600 -0.124400 -0.215400
vn -0.929800 -0.184000 -0.318800
vn -0.876300 -0.240900 -0.417100
vn -0.729100 -0.342200 -0.592700
vn -0.637300 -0.385300 -0.667300
vn -0.535900 -0.422100 -0.731100
vn -0.425700 -0.452500 -0.783600
vn -0.309000 -0.475600 -0.823600
vn 0.000100 0.870600 -0.492000
vn -0.000100 0.868600 -0.495500
vn -0.000900 0.863600 -0.504200
vn 0.000000 0.865500 -0.500900
vn -0.000400 0.866100 -0.499900
vn -0.000600 0.864400 -0.502800
vn -0.000400 0.866000 -0.500100
vn 0.000000 0.866000 -0.500100
vn 0.000600 0.865200 -0.501500
vn -0.002400 0.866200 -0.499700
vn 0.000000 0.865800 -0.500400
vn -0.000400 0.866300 -0.499500
vn 0.000100 0.864700 -0.502200
vn 0.000000 0.866300 -0.499500
vn -0.000200 0.865400 -0.501100
vn 0.000300 0.867200 -0.497900
vn 0.000600 0.866800 -0.498700
vn 0.002400 0.866200 -0.499700
vn -0.000600 0.865200 -0.501500
vn 0.001200 0.866200 -0.499600
vn -0.000600 0.866800 -0.498700
vn 0.000000 0.866200 -0.499700
vn 0.000900 0.864500 -0.502700
vn -0.000100 0.865800 -0.500400
vn -0.000100 0.866100 -0.499900
vn 0.000800 0.866300 -0.499500
vn -0.000400 0.865900 -0.500200
vn -0.000400 0.866000 -0.500000
vn 0.000100 0.866000 -0.500100
vn 0.000000 0.866600 -0.499100
vn 0.000200 0.865800 -0.500400
vn 0.000000 0.865700 -0.500500
vn 0.000100 0.866100 -0.499900
vn -0.000300 0.865900 -0.500200
vn -0.000800 0.866500 -0.499200
vn 0.000000 0.865800 -0.500300
vn 0.000000 0.865900 -0.500200
vn 0.000200 0.866000 -0.500000
vn -0.000000 0.867000 -0.498300
vn -0.000000 0.866100 -0.499900
vn -0.062900 -0.499000 -0.864300
vn -0.187300 -0.491200 -0.850700
vn 0.000000 -0.864300 0.503000
vn 0.000000 -0.866600 0.499100
vn -0.000400 -0.866500 0.499100
vn 0.000000 -0.867800 0.496900
vn 0.002400 -0.866700 0.498800
vn -0.000800 -0.864900 0.501900
vn 0.000000 -0.866000 0.500100
vn 0.001600 -0.865800 0.500400
vn 0.000000 -0.865700 0.500600
vn 0.000600 -0.865500 0.500900
vn 0.000600 -0.866500 0.499200
vn 0.000900 -0.864300 0.503000
vn 0.000100 -0.867500 0.497400
vn -0.000100 -0.867500 0.497400
vn -0.000900 -0.864500 0.502700
vn -0.000600 -0.866800 0.498700
vn 0.000000 -0.865000 0.501800
vn 0.000800 -0.866000 0.500100
vn -0.001200 -0.866100 0.499800
vn 0.000400 -0.866400 0.499300
vn -0.002400 -0.866700 0.498800
vn 0.000000 -0.864900 0.501900
vn 0.000000 -0.865400 0.501000
vn -0.000100 -0.865100 0.501700
vn -0.000400 -0.864900 0.501900
vn -0.000200 -0.866400 0.499400
vn -0.000600 -0.866000 0.500000
vn 0.000000 -0.866100 0.499900
vn 0.000000 -0.866200 0.499700
vn 0.000100 -0.866000 0.500000
vn 0.000000 -0.866300 0.499600
vn -0.000300 -0.866300 0.499500
vn 0.000400 -0.864600 0.502500
vn 0.000400 -0.866400 0.499400
vn 0.000100 -0.866600 0.499100
vn 0.000100 -0.865900 0.500100
vn -0.000000 -0.866100 0.499800
vn -0.000100 -0.866000 0.500000
usemtl None
s off
f 2//1 4//1 3//1
f 4//2 6//2 5//2
f 6//3 8//3 7//3
f 8//4 10//4 9//4
f 9//5 10//5 12//5
f 12//6 14//6 13//6
f 13//7 14//7 16//7
f 15//8 16//8 18//8
f 18//9 20//9 19//9
f 19//10 20//10 22//10
f 21//11 22//11 24//11
f 23//12 24//12 26//12
f 26//13 28//13 27//13
f 28//14 30//14 29//14
f 30//15 32//15 31//15
f 32//16 34//16 33//16
f 33//17 34//17 36//17
f 35//18 36//18 38//18
f 37//19 38//19 40//19
f 39//20 40//20 42//20
f 42//21 44//21 43//21
f 43//22 44//22 46//22
f 46//23 48//23 47//23
f 48//24 50//24 49//24
f 49//25 50//25 52//25
f 52//26 54//26 53//26
f 54//27 56//27 55//27
f 55//28 56//28 58//28
f 57//29 58//29 60//29
f 60//30 62//30 61//30
f 62//31 64//31 63//31
f 64//32 66//32 65//32
f 66//33 68//33 67//33
f 68//34 70//34 69//34
f 69//35 70//35 72//35
f 71//36 72//36 74//36
f 73//37 74//37 76//37
f 76//38 78//38 77//38
f 78//39 80//39 79//39
f 80//40 82//40 81//40
f 81//41 82//41 84//41
f 84//42 86//42 85//42
f 85//43 86//43 88//43
f 87//44 88//44 90//44
f 89//45 90//45 92//45
f 91//46 92//46 94//46
f 94//47 96//47 95//47
f 96//48 98//48 97//48
f 98//49 66//49 18//49
f 100//50 2//50 1//50
f 97//51 98//51 100//51
f 23//52 39//52 71//52
f 1//53 2//53 3//53
f 3//54 4//54 5//54
f 5//55 6//55 7//55
f 7//56 8//56 9//56
f 11//57 9//57 12//57
f 11//58 12//58 13//58
f 15//59 13//59 16//59
f 17//60 15//60 18//60
f 17//61 18//61 19//61
f 21//62 19//62 22//62
f 23//63 21//63 24//63
f 25//64 23//64 26//64
f 25//13 26//13 27//13
f 27//65 28//65 29//65
f 29//66 30//66 31//66
f 31//67 32//67 33//67
f 35//68 33//68 36//68
f 37//69 35//69 38//69
f 39//70 37//70 40//70
f 41//71 39//71 42//71
f 41//72 42//72 43//72
f 45//73 43//73 46//73
f 45//23 46//23 47//23
f 47//74 48//74 49//74
f 51//75 49//75 52//75
f 51//76 52//76 53//76
f 53//77 54//77 55//77
f 57//28 55//28 58//28
f 59//78 57//78 60//78
f 59//79 60//79 61//79
f 61//31 62//31 63//31
f 63//80 64//80 65//80
f 65//81 66//81 67//81
f 67//82 68//82 69//82
f 71//83 69//83 72//83
f 73//36 71//36 74//36
f 75//84 73//84 76//84
f 75//38 76//38 77//38
f 77//85 78//85 79//85
f 79//86 80//86 81//86
f 83//87 81//87 84//87
f 83//88 84//88 85//88
f 87//43 85//43 88//43
f 89//89 87//89 90//89
f 91//90 89//90 92//90
f 93//91 91//91 94//91
f 93//92 94//92 95//92
f 95//93 96//93 97//93
f 6//94 4//94 2//94
f 2//95 100//95 98//95
f 98//96 96//96 94//96
f 94//97 92//97 90//97
f 90//98 88//98 82//98
f 86//99 84//99 82//99
f 82//100 80//100 74//100
f 78//101 76//101 74//101
f 74//102 72//102 70//102
f 70//103 68//103 66//103
f 66//104 64//104 62//104
f 62//105 60//105 66//105
f 58//106 56//106 50//106
f 54//107 52//107 50//107
f 50//108 48//108 42//108
f 46//109 44//109 42//109
f 42//110 40//110 38//110
f 38//111 36//111 34//111
f 34//112 32//112 30//112
f 30//113 28//113 26//113
f 26//114 24//114 22//114
f 22//112 20//112 18//112
f 18//115 16//115 10//115
f 14//97 12//97 10//97
f 10//116 8//116 6//116
f 6//117 2//117 10//117
f 98//118 94//118 82//118
f 88//119 86//119 82//119
f 80//120 78//120 74//120
f 74//121 70//121 82//121
f 66//122 60//122 50//122
f 56//123 54//123 50//123
f 48//124 46//124 42//124
f 42//125 38//125 34//125
f 34//126 30//126 18//126
f 26//127 22//127 18//127
f 16//128 14//128 10//128
f 10//129 2//129 98//129
f 94//130 90//130 82//130
f 82//131 70//131 66//131
f 60//132 58//132 50//132
f 50//133 42//133 66//133
f 30//49 26//49 18//49
f 18//133 10//133 98//133
f 98//49 82//49 66//49
f 66//49 42//49 34//49
f 34//49 18//49 66//49
f 99//134 100//134 1//134
f 99//135 97//135 100//135
f 99//136 1//136 3//136
f 3//137 5//137 99//137
f 7//138 9//138 15//138
f 11//139 13//139 15//139
f 15//140 17//140 19//140
f 19//141 21//141 15//141
f 23//142 25//142 27//142
f 27//143 29//143 23//143
f 31//144 33//144 35//144
f 35//145 37//145 39//145
f 39//146 41//146 43//146
f 43//147 45//147 47//147
f 47//148 49//148 51//148
f 51//149 53//149 55//149
f 55//150 57//150 59//150
f 59//151 61//151 63//151
f 63//152 65//152 67//152
f 67//144 69//144 71//144
f 71//153 73//153 79//153
f 75//154 77//154 79//154
f 79//155 81//155 87//155
f 83//156 85//156 87//156
f 87//139 89//139 91//139
f 91//157 93//157 87//157
f 95//158 97//158 7//158
f 99//159 5//159 7//159
f 9//160 11//160 15//160
f 15//161 21//161 23//161
f 23//162 29//162 31//162
f 31//163 35//163 23//163
f 39//164 43//164 47//164
f 47//165 51//165 39//165
f 55//166 59//166 63//166
f 63//167 67//167 71//167
f 73//142 75//142 79//142
f 81//168 83//168 87//168
f 87//169 93//169 95//169
f 97//170 99//170 7//170
f 7//171 15//171 23//171
f 23//165 35//165 39//165
f 39//172 51//172 55//172
f 55//142 63//142 39//142
f 71//173 79//173 87//173
f 87//165 95//165 71//165
f 7//52 23//52 71//52
f 39//52 63//52 71//52
f 71//163 95//163 7//163
