# Blender v2.76 (sub 0) OBJ File: 'scene merged.blend'
# www.blender.org
mtllib minute.mtl
o minute_Line008
v 0.181637 3.861833 -2.298388
v 0.182386 3.947695 -2.426214
v 0.182377 3.946689 -2.430019
v 0.182367 3.945529 -2.433707
v 0.182357 3.944330 -2.437367
v 0.182347 3.943209 -2.441085
v 0.182339 3.942280 -2.444947
v 0.182333 3.941660 -2.449042
v 0.182332 3.941465 -2.453454
v 0.182333 3.941636 -2.458394
v 0.182337 3.942051 -2.463850
v 0.182343 3.942729 -2.469589
v 0.182351 3.943691 -2.475373
v 0.182362 3.944956 -2.480966
v 0.182376 3.946544 -2.486131
v 0.182393 3.948475 -2.490632
v 0.182414 3.950897 -2.494519
v 0.182440 3.953841 -2.498018
v 0.182469 3.957153 -2.501159
v 0.182499 3.960679 -2.503971
v 0.182531 3.964265 -2.506482
v 0.182561 3.967755 -2.508721
v 0.182589 3.970996 -2.510718
v 0.182616 3.974037 -2.512407
v 0.182642 3.977033 -2.513742
v 0.182668 3.979986 -2.514778
v 0.182693 3.982895 -2.515569
v 0.182718 3.985763 -2.516170
v 0.182743 3.988591 -2.516635
v 0.182767 3.991380 -2.517020
v 0.182791 3.994113 -2.517240
v 0.182814 3.996781 -2.517219
v 0.182837 3.999404 -2.517023
v 0.182860 4.001997 -2.516717
v 0.182882 4.004579 -2.516367
v 0.182905 4.007166 -2.516039
v 0.182928 4.009777 -2.515798
v 0.187547 4.539034 -3.334978
v 0.187901 4.579591 -3.342523
v 0.187950 4.585250 -3.306681
v 0.183261 4.047899 -2.491899
v 0.183270 4.048991 -2.488745
v 0.183280 4.050175 -2.485616
v 0.183291 4.051381 -2.482493
v 0.183301 4.052542 -2.479358
v 0.183310 4.053588 -2.476192
v 0.183318 4.054451 -2.472977
v 0.183323 4.055064 -2.469693
v 0.183326 4.055436 -2.466281
v 0.183328 4.055634 -2.462736
v 0.183328 4.055667 -2.459126
v 0.183327 4.055548 -2.455517
v 0.183325 4.055287 -2.451977
v 0.183322 4.054895 -2.448572
v 0.183317 4.054383 -2.445371
v 0.183312 4.053746 -2.442373
v 0.183305 4.052975 -2.439517
v 0.183297 4.052069 -2.436782
v 0.183288 4.051028 -2.434145
v 0.183278 4.049852 -2.431587
v 0.183266 4.048542 -2.429083
v 0.183254 4.047098 -2.426612
v 0.183240 4.045488 -2.424148
v 0.183224 4.043705 -2.421700
v 0.183207 4.041777 -2.419304
v 0.183189 4.039734 -2.416993
v 0.183171 4.037607 -2.414802
v 0.183152 4.035425 -2.412764
v 0.183132 4.033219 -2.410914
v 0.183113 4.030943 -2.409247
v 0.183092 4.028554 -2.407733
v 0.183070 4.026089 -2.406364
v 0.183048 4.023583 -2.405132
v 0.183026 4.021073 -2.404029
v 0.183005 4.018594 -2.403049
v 0.182984 4.016182 -2.402183
v 0.182963 4.013804 -2.401459
v 0.182942 4.011415 -2.400891
v 0.182921 4.009039 -2.400456
v 0.182901 4.006696 -2.400129
v 0.182881 4.004409 -2.399888
v 0.182862 4.002200 -2.399707
v 0.182843 4.000091 -2.399563
v 0.182826 3.998104 -2.399493
v 0.182810 3.996228 -2.399532
v 0.182794 3.994433 -2.399650
v 0.182779 3.992688 -2.399817
v 0.182764 3.990963 -2.400003
v 0.182748 3.989229 -2.400179
v 0.182733 3.987453 -2.400317
v 0.182029 3.906829 -2.270087
v 0.189616 3.861763 -2.298388
v 0.190365 3.947626 -2.426214
v 0.190357 3.946620 -2.430019
v 0.190346 3.945460 -2.433707
v 0.190336 3.944261 -2.437367
v 0.190326 3.943139 -2.441085
v 0.190318 3.942210 -2.444947
v 0.190313 3.941591 -2.449042
v 0.190311 3.941396 -2.453454
v 0.190312 3.941566 -2.458394
v 0.190316 3.941981 -2.463850
v 0.190322 3.942659 -2.469589
v 0.190330 3.943621 -2.475373
v 0.190341 3.944886 -2.480966
v 0.190355 3.946474 -2.486131
v 0.190372 3.948405 -2.490632
v 0.190393 3.950827 -2.494519
v 0.190419 3.953771 -2.498018
v 0.190448 3.957084 -2.501159
v 0.190479 3.960610 -2.503971
v 0.190510 3.964195 -2.506482
v 0.190540 3.967685 -2.508721
v 0.190569 3.970926 -2.510718
v 0.190595 3.973968 -2.512407
v 0.190621 3.976964 -2.513742
v 0.190647 3.979916 -2.514778
v 0.190673 3.982826 -2.515569
v 0.190698 3.985694 -2.516170
v 0.190722 3.988522 -2.516635
v 0.190747 3.991311 -2.517020
v 0.190770 3.994043 -2.517240
v 0.190794 3.996712 -2.517219
v 0.190817 3.999334 -2.517023
v 0.190839 4.001927 -2.516717
v 0.190862 4.004509 -2.516367
v 0.190884 4.007097 -2.516039
v 0.190907 4.009707 -2.515798
v 0.195526 4.538965 -3.334978
v 0.195880 4.579521 -3.342523
v 0.195930 4.585180 -3.306681
v 0.191240 4.047829 -2.491899
v 0.191249 4.048921 -2.488745
v 0.191260 4.050105 -2.485616
v 0.191270 4.051311 -2.482493
v 0.191280 4.052472 -2.479358
v 0.191289 4.053519 -2.476192
v 0.191297 4.054382 -2.472977
v 0.191302 4.054994 -2.469693
v 0.191306 4.055366 -2.466281
v 0.191307 4.055564 -2.462736
v 0.191308 4.055598 -2.459126
v 0.191307 4.055479 -2.455517
v 0.191304 4.055218 -2.451977
v 0.191301 4.054826 -2.448572
v 0.191296 4.054313 -2.445371
v 0.191291 4.053677 -2.442373
v 0.191284 4.052905 -2.439517
v 0.191276 4.051999 -2.436782
v 0.191267 4.050958 -2.434145
v 0.191257 4.049782 -2.431587
v 0.191245 4.048472 -2.429083
v 0.191233 4.047028 -2.426612
v 0.191219 4.045419 -2.424148
v 0.191203 4.043635 -2.421700
v 0.191186 4.041707 -2.419304
v 0.191169 4.039664 -2.416993
v 0.191150 4.037537 -2.414802
v 0.191131 4.035356 -2.412764
v 0.191112 4.033150 -2.410914
v 0.191092 4.030873 -2.409247
v 0.191071 4.028485 -2.407733
v 0.191049 4.026020 -2.406364
v 0.191028 4.023514 -2.405132
v 0.191006 4.021004 -2.404029
v 0.190984 4.018525 -2.403049
v 0.190963 4.016113 -2.402183
v 0.190942 4.013734 -2.401459
v 0.190921 4.011346 -2.400891
v 0.190901 4.008969 -2.400456
v 0.190880 4.006627 -2.400129
v 0.190860 4.004340 -2.399888
v 0.190841 4.002131 -2.399707
v 0.190823 4.000021 -2.399563
v 0.190805 3.998035 -2.399493
v 0.190789 3.996159 -2.399532
v 0.190773 3.994364 -2.399650
v 0.190758 3.992619 -2.399817
v 0.190743 3.990894 -2.400003
v 0.190728 3.989159 -2.400179
v 0.190712 3.987384 -2.400317
v 0.190009 3.906759 -2.270087
vn -0.007200 -0.830100 -0.557600
vn -0.007300 -0.830100 -0.557600
vn -0.008400 -0.966700 0.255800
vn -0.008400 -0.966700 0.255700
vn -0.008300 -0.953900 0.300100
vn -0.008300 -0.953900 0.299900
vn -0.008300 -0.950300 0.311100
vn -0.008300 -0.950300 0.311300
vn -0.008400 -0.957400 0.288800
vn -0.008400 -0.957300 0.288900
vn -0.008500 -0.972300 0.233600
vn -0.008500 -0.972200 0.233800
vn -0.008600 -0.988700 0.149700
vn -0.008600 -0.988700 0.149600
vn -0.008700 -0.999000 0.044200
vn -0.008700 -0.999000 0.044300
vn -0.008700 -0.999400 -0.034800
vn -0.008700 -0.999400 -0.034700
vn -0.008700 -0.997100 -0.075800
vn -0.008700 -0.997100 -0.075700
vn -0.008700 -0.993000 -0.117500
vn -0.008700 -0.993000 -0.117400
vn -0.008600 -0.986400 -0.164000
vn -0.008500 -0.975400 -0.220500
vn -0.008500 -0.975300 -0.220600
vn -0.008300 -0.955800 -0.293800
vn -0.008400 -0.955700 -0.294100
vn -0.008000 -0.918900 -0.394400
vn -0.007400 -0.848600 -0.529000
vn -0.007400 -0.848800 -0.528700
vn -0.006700 -0.765200 -0.643700
vn -0.006000 -0.688000 -0.725700
vn -0.005400 -0.623400 -0.781900
vn -0.005400 -0.623500 -0.781800
vn -0.005000 -0.573600 -0.819100
vn -0.005000 -0.573500 -0.819200
vn -0.004700 -0.540000 -0.841600
vn -0.004700 -0.540000 -0.841700
vn -0.004600 -0.524600 -0.851300
vn -0.004500 -0.524500 -0.851400
vn -0.004200 -0.485600 -0.874200
vn -0.004300 -0.485500 -0.874200
vn -0.003500 -0.407000 -0.913400
vn -0.003600 -0.407000 -0.913400
vn -0.002900 -0.331000 -0.943600
vn -0.002900 -0.331100 -0.943600
vn -0.002300 -0.262400 -0.965000
vn -0.002300 -0.262200 -0.965000
vn -0.001800 -0.205000 -0.978800
vn -0.001400 -0.162400 -0.986700
vn -0.001500 -0.162300 -0.986700
vn -0.001200 -0.136600 -0.990600
vn -0.001200 -0.136700 -0.990600
vn -0.000700 -0.080300 -0.996800
vn -0.000700 -0.080400 -0.996800
vn 0.000100 0.007900 -1.000000
vn 0.000000 0.007900 -1.000000
vn 0.000700 0.074700 -0.997200
vn 0.000600 0.074700 -0.997200
vn 0.001000 0.117200 -0.993100
vn 0.001200 0.134300 -0.990900
vn 0.001200 0.134400 -0.990900
vn 0.001100 0.125800 -0.992100
vn 0.000800 0.091700 -0.995800
vn 0.000800 0.091600 -0.995800
vn -0.007300 -0.839900 -0.542700
vn -0.001600 -0.182900 -0.983100
vn 0.008600 0.987700 -0.156000
vn 0.007300 0.834800 0.550600
vn 0.008200 0.944900 -0.327300
vn 0.008300 0.944900 -0.327200
vn 0.008200 0.935300 -0.353900
vn 0.008200 0.935200 -0.354100
vn 0.008100 0.932700 -0.360600
vn 0.008100 0.932800 -0.360300
vn 0.008200 0.937800 -0.347200
vn 0.008300 0.949300 -0.314100
vn 0.008300 0.949500 -0.313600
vn 0.008400 0.965800 -0.259200
vn 0.008400 0.965800 -0.259100
vn 0.008600 0.983000 -0.183400
vn 0.008600 0.983000 -0.183300
vn 0.008700 0.994100 -0.108500
vn 0.008700 0.994100 -0.108200
vn 0.008700 0.998400 -0.055500
vn 0.008700 0.998400 -0.055900
vn 0.008700 0.999900 -0.009600
vn 0.008700 0.999900 -0.009200
vn 0.008700 0.999400 0.033400
vn 0.008700 0.999400 0.033000
vn 0.008700 0.997300 0.073400
vn 0.008700 0.993400 0.114400
vn 0.008700 0.993400 0.114500
vn 0.008600 0.987300 0.158400
vn 0.008600 0.987400 0.157900
vn 0.008500 0.978200 0.207400
vn 0.008500 0.978100 0.207900
vn 0.008400 0.965400 0.260700
vn 0.008400 0.965300 0.261000
vn 0.008300 0.949300 0.314300
vn 0.008300 0.949300 0.314200
vn 0.008100 0.929900 0.367600
vn 0.008100 0.930100 0.367100
vn 0.007900 0.908700 0.417400
vn 0.007900 0.908600 0.417500
vn 0.007700 0.886200 0.463300
vn 0.007700 0.885900 0.463900
vn 0.007500 0.863300 0.504700
vn 0.007500 0.863200 0.504800
vn 0.007300 0.837300 0.546700
vn 0.007300 0.837200 0.546900
vn 0.007000 0.808200 0.588900
vn 0.007100 0.808200 0.588900
vn 0.006800 0.779100 0.626900
vn 0.006800 0.779000 0.627000
vn 0.006500 0.749200 0.662300
vn 0.006500 0.749200 0.662400
vn 0.006200 0.717600 0.696500
vn 0.006300 0.717500 0.696600
vn 0.005900 0.682500 0.730800
vn 0.006000 0.682600 0.730800
vn 0.005600 0.642700 0.766100
vn 0.005200 0.590600 0.806900
vn 0.005100 0.590600 0.806900
vn 0.004700 0.535600 0.844500
vn 0.004700 0.535300 0.844700
vn 0.004300 0.485400 0.874300
vn 0.004200 0.485500 0.874200
vn 0.003900 0.441200 0.897400
vn 0.003800 0.441200 0.897400
vn 0.003500 0.402200 0.915600
vn 0.003500 0.402100 0.915600
vn 0.003200 0.367700 0.929900
vn 0.003000 0.337800 0.941200
vn 0.002900 0.337800 0.941200
vn 0.002500 0.291200 0.956600
vn 0.002500 0.291300 0.956600
vn 0.002100 0.231200 0.972900
vn 0.002000 0.231400 0.972900
vn 0.001600 0.180100 0.983600
vn 0.001600 0.180200 0.983600
vn 0.001200 0.138000 0.990400
vn 0.000900 0.105100 0.994500
vn 0.000700 0.081600 0.996700
vn 0.000600 0.068000 0.997700
vn 0.000300 0.034900 0.999400
vn -0.000200 -0.020700 0.999800
vn -0.000100 -0.020700 0.999800
vn -0.000600 -0.065400 0.997900
vn -0.000500 -0.065300 0.997900
vn -0.000800 -0.095000 0.995500
vn -0.000900 -0.095100 0.995500
vn -0.000900 -0.107400 0.994200
vn -0.000900 -0.107500 0.994200
vn -0.000800 -0.101200 0.994900
vn -0.000900 -0.101100 0.994900
vn -0.000700 -0.077100 0.997000
vn 0.007400 0.850200 0.526400
vn -0.004600 -0.532400 0.846500
vn -1.000000 0.008700 -0.000000
vn -1.000000 0.008800 0.000000
vn 1.000000 -0.008700 0.000000
vn 1.000000 -0.008800 0.000000
vn 1.000000 -0.008600 0.000000
usemtl Material_#120
s off
f 1//1 2//1 93//1
f 1//2 93//2 92//2
f 2//3 3//3 94//3
f 2//4 94//4 93//4
f 3//5 4//5 95//5
f 3//6 95//6 94//6
f 4//7 5//7 96//7
f 4//8 96//8 95//8
f 5//9 6//9 97//9
f 5//10 97//10 96//10
f 6//11 7//11 98//11
f 6//12 98//12 97//12
f 7//13 8//13 99//13
f 7//14 99//14 98//14
f 8//15 9//15 100//15
f 8//16 100//16 99//16
f 9//17 10//17 101//17
f 9//18 101//18 100//18
f 10//19 11//19 102//19
f 10//20 102//20 101//20
f 11//21 12//21 103//21
f 11//22 103//22 102//22
f 12//23 13//23 104//23
f 12//23 104//23 103//23
f 13//24 14//24 105//24
f 13//25 105//25 104//25
f 14//26 15//26 106//26
f 14//27 106//27 105//27
f 15//28 16//28 107//28
f 15//28 107//28 106//28
f 16//29 17//29 108//29
f 16//30 108//30 107//30
f 17//31 18//31 109//31
f 17//31 109//31 108//31
f 18//32 19//32 110//32
f 18//32 110//32 109//32
f 19//33 20//33 111//33
f 19//34 111//34 110//34
f 20//35 21//35 112//35
f 20//36 112//36 111//36
f 21//37 22//37 113//37
f 21//38 113//38 112//38
f 22//39 23//39 114//39
f 22//40 114//40 113//40
f 23//41 24//41 115//41
f 23//42 115//42 114//42
f 24//43 25//43 116//43
f 24//44 116//44 115//44
f 25//45 26//45 117//45
f 25//46 117//46 116//46
f 26//47 27//47 118//47
f 26//48 118//48 117//48
f 27//49 28//49 119//49
f 27//49 119//49 118//49
f 28//50 29//50 120//50
f 28//51 120//51 119//51
f 29//52 30//52 121//52
f 29//53 121//53 120//53
f 30//54 31//54 122//54
f 30//55 122//55 121//55
f 31//56 32//56 123//56
f 31//57 123//57 122//57
f 32//58 33//58 124//58
f 32//59 124//59 123//59
f 33//60 34//60 125//60
f 33//60 125//60 124//60
f 34//61 35//61 126//61
f 34//62 126//62 125//62
f 35//63 36//63 127//63
f 35//63 127//63 126//63
f 36//64 37//64 128//64
f 36//65 128//65 127//65
f 37//66 38//66 129//66
f 37//66 129//66 128//66
f 38//67 39//67 130//67
f 38//67 130//67 129//67
f 39//68 40//68 131//68
f 39//68 131//68 130//68
f 40//69 41//69 132//69
f 40//69 132//69 131//69
f 41//70 42//70 133//70
f 41//71 133//71 132//71
f 42//72 43//72 134//72
f 42//73 134//73 133//73
f 43//74 44//74 135//74
f 43//75 135//75 134//75
f 44//76 45//76 136//76
f 44//76 136//76 135//76
f 45//77 46//77 137//77
f 45//78 137//78 136//78
f 46//79 47//79 138//79
f 46//80 138//80 137//80
f 47//81 48//81 139//81
f 47//82 139//82 138//82
f 48//83 49//83 140//83
f 48//84 140//84 139//84
f 49//85 50//85 141//85
f 49//86 141//86 140//86
f 50//87 51//87 142//87
f 50//88 142//88 141//88
f 51//89 52//89 143//89
f 51//90 143//90 142//90
f 52//91 53//91 144//91
f 52//91 144//91 143//91
f 53//92 54//92 145//92
f 53//93 145//93 144//93
f 54//94 55//94 146//94
f 54//95 146//95 145//95
f 55//96 56//96 147//96
f 55//97 147//97 146//97
f 56//98 57//98 148//98
f 56//99 148//99 147//99
f 57//100 58//100 149//100
f 57//101 149//101 148//101
f 58//102 59//102 150//102
f 58//103 150//103 149//103
f 59//104 60//104 151//104
f 59//105 151//105 150//105
f 60//106 61//106 152//106
f 60//107 152//107 151//107
f 61//108 62//108 153//108
f 61//109 153//109 152//109
f 62//110 63//110 154//110
f 62//111 154//111 153//111
f 63//112 64//112 155//112
f 63//113 155//113 154//113
f 64//114 65//114 156//114
f 64//115 156//115 155//115
f 65//116 66//116 157//116
f 65//117 157//117 156//117
f 66//118 67//118 158//118
f 66//119 158//119 157//119
f 67//120 68//120 159//120
f 67//121 159//121 158//121
f 68//122 69//122 160//122
f 68//122 160//122 159//122
f 69//123 70//123 161//123
f 69//124 161//124 160//124
f 70//125 71//125 162//125
f 70//126 162//126 161//126
f 71//127 72//127 163//127
f 71//128 163//128 162//128
f 72//129 73//129 164//129
f 72//130 164//130 163//130
f 73//131 74//131 165//131
f 73//132 165//132 164//132
f 74//133 75//133 166//133
f 74//133 166//133 165//133
f 75//134 76//134 167//134
f 75//135 167//135 166//135
f 76//136 77//136 168//136
f 76//137 168//137 167//137
f 77//138 78//138 169//138
f 77//139 169//139 168//139
f 78//140 79//140 170//140
f 78//141 170//141 169//141
f 79//142 80//142 171//142
f 79//142 171//142 170//142
f 80//143 81//143 172//143
f 80//143 172//143 171//143
f 81//144 82//144 173//144
f 81//144 173//144 172//144
f 82//145 83//145 174//145
f 82//145 174//145 173//145
f 83//146 84//146 175//146
f 83//146 175//146 174//146
f 84//147 85//147 176//147
f 84//148 176//148 175//148
f 85//149 86//149 177//149
f 85//150 177//150 176//150
f 86//151 87//151 178//151
f 86//152 178//152 177//152
f 87//153 88//153 179//153
f 87//154 179//154 178//154
f 88//155 89//155 180//155
f 88//156 180//156 179//156
f 89//157 90//157 181//157
f 89//157 181//157 180//157
f 90//158 91//158 182//158
f 90//158 182//158 181//158
f 91//159 1//159 92//159
f 91//159 92//159 182//159
f 1//160 91//160 2//160
f 90//160 2//160 91//160
f 38//160 40//160 39//160
f 38//160 41//160 40//160
f 37//160 41//160 38//160
f 90//160 3//160 2//160
f 37//160 42//160 41//160
f 90//160 4//160 3//160
f 37//160 43//160 42//160
f 89//161 4//161 90//161
f 89//160 5//160 4//160
f 88//160 5//160 89//160
f 88//160 6//160 5//160
f 88//160 7//160 6//160
f 88//160 8//160 7//160
f 88//160 9//160 8//160
f 88//160 10//160 9//160
f 88//160 11//160 10//160
f 87//161 11//161 88//161
f 86//160 11//160 87//160
f 85//160 11//160 86//160
f 84//160 11//160 85//160
f 83//160 11//160 84//160
f 82//160 11//160 83//160
f 81//160 11//160 82//160
f 80//160 11//160 81//160
f 79//160 11//160 80//160
f 78//160 11//160 79//160
f 77//160 11//160 78//160
f 76//160 11//160 77//160
f 75//160 11//160 76//160
f 74//160 11//160 75//160
f 73//160 11//160 74//160
f 72//160 11//160 73//160
f 71//160 11//160 72//160
f 70//160 11//160 71//160
f 69//160 11//160 70//160
f 68//160 11//160 69//160
f 67//160 11//160 68//160
f 66//160 11//160 67//160
f 65//160 11//160 66//160
f 64//160 11//160 65//160
f 63//160 11//160 64//160
f 62//160 11//160 63//160
f 61//160 11//160 62//160
f 60//160 11//160 61//160
f 59//160 11//160 60//160
f 58//160 11//160 59//160
f 57//160 11//160 58//160
f 56//160 11//160 57//160
f 55//160 11//160 56//160
f 54//160 11//160 55//160
f 53//160 11//160 54//160
f 52//160 11//160 53//160
f 52//160 12//160 11//160
f 51//160 12//160 52//160
f 50//160 12//160 51//160
f 49//160 12//160 50//160
f 48//160 12//160 49//160
f 47//160 12//160 48//160
f 46//160 12//160 47//160
f 45//160 12//160 46//160
f 44//160 12//160 45//160
f 44//160 13//160 12//160
f 43//160 13//160 44//160
f 37//160 13//160 43//160
f 36//160 13//160 37//160
f 35//160 13//160 36//160
f 34//160 13//160 35//160
f 34//160 14//160 13//160
f 33//160 14//160 34//160
f 32//160 14//160 33//160
f 31//160 14//160 32//160
f 30//160 14//160 31//160
f 29//160 14//160 30//160
f 28//160 14//160 29//160
f 27//160 14//160 28//160
f 26//160 14//160 27//160
f 25//160 14//160 26//160
f 24//160 14//160 25//160
f 23//160 14//160 24//160
f 22//160 14//160 23//160
f 21//160 14//160 22//160
f 20//160 14//160 21//160
f 19//160 14//160 20//160
f 19//160 15//160 14//160
f 18//160 15//160 19//160
f 18//160 16//160 15//160
f 18//160 17//160 16//160
f 182//162 92//162 93//162
f 181//162 182//162 93//162
f 129//162 130//162 131//162
f 129//162 131//162 132//162
f 128//162 129//162 132//162
f 181//162 93//162 94//162
f 128//162 132//162 133//162
f 181//162 94//162 95//162
f 128//162 133//162 134//162
f 180//162 181//162 95//162
f 180//162 95//162 96//162
f 179//162 180//162 96//162
f 179//162 96//162 97//162
f 179//162 97//162 98//162
f 179//162 98//162 99//162
f 179//162 99//162 100//162
f 179//162 100//162 101//162
f 179//162 101//162 102//162
f 178//162 179//162 102//162
f 177//163 178//163 102//163
f 176//162 177//162 102//162
f 175//162 176//162 102//162
f 174//162 175//162 102//162
f 173//162 174//162 102//162
f 172//162 173//162 102//162
f 171//162 172//162 102//162
f 170//162 171//162 102//162
f 169//162 170//162 102//162
f 168//162 169//162 102//162
f 167//162 168//162 102//162
f 166//162 167//162 102//162
f 165//162 166//162 102//162
f 164//162 165//162 102//162
f 163//162 164//162 102//162
f 162//162 163//162 102//162
f 161//162 162//162 102//162
f 160//162 161//162 102//162
f 159//162 160//162 102//162
f 158//162 159//162 102//162
f 157//162 158//162 102//162
f 156//162 157//162 102//162
f 155//162 156//162 102//162
f 154//162 155//162 102//162
f 153//162 154//162 102//162
f 152//162 153//162 102//162
f 151//162 152//162 102//162
f 150//162 151//162 102//162
f 149//162 150//162 102//162
f 148//162 149//162 102//162
f 147//162 148//162 102//162
f 146//162 147//162 102//162
f 145//162 146//162 102//162
f 144//162 145//162 102//162
f 143//162 144//162 102//162
f 143//162 102//162 103//162
f 142//162 143//162 103//162
f 141//162 142//162 103//162
f 140//162 141//162 103//162
f 139//162 140//162 103//162
f 138//162 139//162 103//162
f 137//162 138//162 103//162
f 136//162 137//162 103//162
f 135//162 136//162 103//162
f 135//162 103//162 104//162
f 134//162 135//162 104//162
f 128//162 134//162 104//162
f 127//162 128//162 104//162
f 126//162 127//162 104//162
f 125//162 126//162 104//162
f 125//162 104//162 105//162
f 124//162 125//162 105//162
f 123//162 124//162 105//162
f 122//162 123//162 105//162
f 121//162 122//162 105//162
f 120//162 121//162 105//162
f 119//162 120//162 105//162
f 118//162 119//162 105//162
f 117//162 118//162 105//162
f 116//162 117//162 105//162
f 115//162 116//162 105//162
f 114//162 115//162 105//162
f 113//163 114//163 105//163
f 112//162 113//162 105//162
f 111//162 112//162 105//162
f 110//162 111//162 105//162
f 110//162 105//162 106//162
f 109//162 110//162 106//162
f 109//162 106//162 107//162
f 109//164 107//164 108//164
