# Blender v2.76 (sub 0) OBJ File: 'scene merged.blend'
# www.blender.org
mtllib second.mtl
o second_Line010
v 0.173946 3.817673 0.184745
v 0.173948 3.812628 0.187097
v 0.173928 3.807814 0.186676
v 0.173897 3.809622 0.182084
v 0.173386 4.245224 -0.063705
v 0.173384 4.245162 -0.063922
v 0.173381 4.245099 -0.064157
v 0.173379 4.245035 -0.064431
v 0.173376 4.244969 -0.064762
v 0.173373 4.244901 -0.065170
v 0.173368 4.244831 -0.065674
v 0.173363 4.244758 -0.066293
v 0.173357 4.244719 -0.067032
v 0.173350 4.244748 -0.067867
v 0.173343 4.244845 -0.068767
v 0.173336 4.245008 -0.069707
v 0.173330 4.245234 -0.070657
v 0.173323 4.245523 -0.071590
v 0.173317 4.245872 -0.072478
v 0.173311 4.246315 -0.073376
v 0.173305 4.246882 -0.074337
v 0.173300 4.247571 -0.075325
v 0.173295 4.248374 -0.076305
v 0.173290 4.249290 -0.077242
v 0.173287 4.250314 -0.078101
v 0.173285 4.251441 -0.078846
v 0.173284 4.252619 -0.079445
v 0.173284 4.253784 -0.079900
v 0.173285 4.254923 -0.080228
v 0.173287 4.256019 -0.080447
v 0.173290 4.257056 -0.080576
v 0.173292 4.258019 -0.080632
v 0.173295 4.258893 -0.080632
v 0.173298 4.259708 -0.080585
v 0.173302 4.260508 -0.080483
v 0.173306 4.261298 -0.080329
v 0.173310 4.262083 -0.080121
v 0.173315 4.262868 -0.079859
v 0.173320 4.263658 -0.079543
v 0.173326 4.264458 -0.079173
v 0.173332 4.265258 -0.078718
v 0.173339 4.266042 -0.078164
v 0.173347 4.266796 -0.077533
v 0.173355 4.267511 -0.076849
v 0.173363 4.268175 -0.076135
v 0.173371 4.268778 -0.075414
v 0.173378 4.269309 -0.074710
v 0.173385 4.269772 -0.074014
v 0.173392 4.270181 -0.073306
v 0.173399 4.270537 -0.072585
v 0.173406 4.270841 -0.071852
v 0.173413 4.271093 -0.071106
v 0.173420 4.271297 -0.070348
v 0.173427 4.271452 -0.069577
v 0.173433 4.271553 -0.068791
v 0.173440 4.271595 -0.067988
v 0.173446 4.271585 -0.067171
v 0.173453 4.271530 -0.066343
v 0.173459 4.271434 -0.065509
v 0.173466 4.271306 -0.064671
v 0.173472 4.271150 -0.063833
v 0.173478 4.270904 -0.062929
v 0.173485 4.270509 -0.061923
v 0.173492 4.269981 -0.060858
v 0.173498 4.269336 -0.059780
v 0.173504 4.268589 -0.058732
v 0.173509 4.267753 -0.057760
v 0.173513 4.266846 -0.056908
v 0.173516 4.265901 -0.056192
v 0.173517 4.264948 -0.055593
v 0.173518 4.263997 -0.055098
v 0.173518 4.263054 -0.054696
v 0.173518 4.262128 -0.054376
v 0.173517 4.261226 -0.054125
v 0.173515 4.260356 -0.053932
v 0.173513 4.259488 -0.053807
v 0.173511 4.258595 -0.053762
v 0.173507 4.257695 -0.053783
v 0.173504 4.256804 -0.053861
v 0.173500 4.255937 -0.053982
v 0.173496 4.255112 -0.054137
v 0.173492 4.254345 -0.054311
v 0.173488 4.253639 -0.054519
v 0.173484 4.252979 -0.054773
v 0.173479 4.252358 -0.055066
v 0.173474 4.251768 -0.055390
v 0.173470 4.251201 -0.055738
v 0.173465 4.250649 -0.056101
v 0.173460 4.250106 -0.056472
v 0.179064 3.817656 0.184703
v 0.179066 3.812611 0.187055
v 0.179047 3.807797 0.186635
v 0.179016 3.809605 0.182043
v 0.178504 4.245207 -0.063747
v 0.178502 4.245144 -0.063963
v 0.178500 4.245081 -0.064198
v 0.178498 4.245017 -0.064472
v 0.178495 4.244952 -0.064803
v 0.178491 4.244884 -0.065211
v 0.178487 4.244814 -0.065715
v 0.178482 4.244741 -0.066334
v 0.178476 4.244701 -0.067074
v 0.178469 4.244731 -0.067908
v 0.178462 4.244828 -0.068809
v 0.178455 4.244990 -0.069748
v 0.178448 4.245217 -0.070699
v 0.178442 4.245505 -0.071632
v 0.178436 4.245855 -0.072519
v 0.178430 4.246298 -0.073418
v 0.178424 4.246865 -0.074378
v 0.178419 4.247553 -0.075366
v 0.178413 4.248357 -0.076346
v 0.178409 4.249273 -0.077283
v 0.178405 4.250297 -0.078142
v 0.178403 4.251424 -0.078887
v 0.178402 4.252602 -0.079486
v 0.178403 4.253767 -0.079941
v 0.178404 4.254906 -0.080269
v 0.178406 4.256001 -0.080488
v 0.178408 4.257039 -0.080617
v 0.178411 4.258002 -0.080673
v 0.178414 4.258876 -0.080673
v 0.178417 4.259691 -0.080626
v 0.178421 4.260491 -0.080525
v 0.178425 4.261281 -0.080370
v 0.178429 4.262066 -0.080162
v 0.178434 4.262851 -0.079900
v 0.178439 4.263641 -0.079584
v 0.178444 4.264441 -0.079214
v 0.178451 4.265241 -0.078759
v 0.178458 4.266025 -0.078205
v 0.178466 4.266779 -0.077575
v 0.178473 4.267494 -0.076891
v 0.178481 4.268158 -0.076177
v 0.178489 4.268761 -0.075456
v 0.178497 4.269292 -0.074751
v 0.178504 4.269755 -0.074056
v 0.178511 4.270164 -0.073347
v 0.178518 4.270520 -0.072627
v 0.178525 4.270823 -0.071893
v 0.178532 4.271076 -0.071148
v 0.178539 4.271280 -0.070389
v 0.178545 4.271435 -0.069619
v 0.178552 4.271535 -0.068832
v 0.178559 4.271577 -0.068029
v 0.178565 4.271568 -0.067212
v 0.178572 4.271513 -0.066385
v 0.178578 4.271417 -0.065550
v 0.178584 4.271289 -0.064713
v 0.178590 4.271133 -0.063874
v 0.178597 4.270886 -0.062971
v 0.178604 4.270492 -0.061964
v 0.178611 4.269964 -0.060899
v 0.178617 4.269319 -0.059821
v 0.178623 4.268571 -0.058773
v 0.178628 4.267736 -0.057801
v 0.178632 4.266829 -0.056949
v 0.178634 4.265883 -0.056233
v 0.178636 4.264931 -0.055634
v 0.178637 4.263980 -0.055139
v 0.178637 4.263037 -0.054737
v 0.178636 4.262111 -0.054417
v 0.178635 4.261209 -0.054166
v 0.178634 4.260339 -0.053973
v 0.178632 4.259470 -0.053848
v 0.178629 4.258578 -0.053803
v 0.178626 4.257678 -0.053825
v 0.178622 4.256786 -0.053902
v 0.178619 4.255920 -0.054024
v 0.178615 4.255095 -0.054178
v 0.178611 4.254328 -0.054353
v 0.178607 4.253622 -0.054560
v 0.178602 4.252962 -0.054814
v 0.178598 4.252341 -0.055107
v 0.178593 4.251750 -0.055432
v 0.178588 4.251184 -0.055779
v 0.178584 4.250632 -0.056142
v 0.178579 4.250089 -0.056513
vn 0.008700 0.422500 0.906300
vn 0.007700 -0.087000 0.996200
vn -0.006100 -0.930500 -0.366200
vn -0.006100 -0.930500 -0.366300
vn -0.008700 -0.491400 -0.870900
vn -0.001100 -0.961500 0.274900
vn -0.001000 -0.959700 0.281000
vn -0.001100 -0.965700 0.259600
vn -0.001300 -0.966100 0.258300
vn -0.001500 -0.972600 0.232600
vn -0.001400 -0.974000 0.226400
vn -0.001700 -0.981000 0.193900
vn -0.001800 -0.981500 0.191400
vn -0.002000 -0.986500 0.163600
vn -0.002000 -0.986300 0.164700
vn -0.002200 -0.990300 0.138800
vn -0.002200 -0.990700 0.135800
vn -0.002400 -0.993000 0.118000
vn -0.002400 -0.993200 0.116400
vn -0.002900 -0.998500 0.054100
vn -0.002900 -0.998600 0.052300
vn -0.003600 -0.999400 -0.035700
vn -0.003600 -0.999400 -0.035100
vn -0.004200 -0.994400 -0.106000
vn -0.004200 -0.994200 -0.107300
vn -0.004700 -0.985400 -0.170200
vn -0.004700 -0.985300 -0.170800
vn -0.005100 -0.972900 -0.231000
vn -0.005100 -0.972600 -0.232300
vn -0.005700 -0.955400 -0.295100
vn -0.005600 -0.955300 -0.295600
vn -0.006100 -0.930800 -0.365600
vn -0.006200 -0.930200 -0.367000
vn -0.006600 -0.897100 -0.441800
vn -0.006600 -0.896500 -0.442900
vn -0.007000 -0.860900 -0.508700
vn -0.007000 -0.861100 -0.508300
vn -0.007400 -0.820700 -0.571300
vn -0.007400 -0.820800 -0.571100
vn -0.007700 -0.773000 -0.634300
vn -0.007800 -0.773000 -0.634400
vn -0.008000 -0.714900 -0.699100
vn -0.008000 -0.714900 -0.699200
vn -0.008300 -0.642800 -0.766000
vn -0.008300 -0.642700 -0.766100
vn -0.008600 -0.551500 -0.834100
vn -0.008700 -0.453500 -0.891200
vn -0.008700 -0.453300 -0.891300
vn -0.008700 -0.363400 -0.931600
vn -0.008700 -0.363300 -0.931600
vn -0.008700 -0.276800 -0.960900
vn -0.008700 -0.276900 -0.960900
vn -0.008500 -0.196300 -0.980500
vn -0.008600 -0.196400 -0.980500
vn -0.008400 -0.123100 -0.992400
vn -0.008200 -0.057800 -0.998300
vn -0.008200 -0.057700 -0.998300
vn -0.008100 -0.000700 -1.000000
vn -0.007800 0.058400 -0.998300
vn -0.007600 0.125400 -0.992100
vn -0.007300 0.192200 -0.981300
vn -0.007200 0.191800 -0.981400
vn -0.006900 0.256400 -0.966600
vn -0.006900 0.256600 -0.966500
vn -0.006500 0.316600 -0.948600
vn -0.006600 0.316800 -0.948500
vn -0.006200 0.371500 -0.928400
vn -0.006200 0.371200 -0.928500
vn -0.005900 0.420200 -0.907400
vn -0.005900 0.419800 -0.907600
vn -0.005300 0.494100 -0.869400
vn -0.005300 0.493300 -0.869800
vn -0.004600 0.577300 -0.816500
vn -0.004600 0.577500 -0.816400
vn -0.004000 0.641600 -0.767000
vn -0.004000 0.641300 -0.767300
vn -0.003500 0.691400 -0.722500
vn -0.003500 0.691000 -0.722900
vn -0.003000 0.732400 -0.680800
vn -0.003000 0.731900 -0.681400
vn -0.002600 0.766600 -0.642200
vn -0.002600 0.767200 -0.641400
vn -0.002200 0.799400 -0.600900
vn -0.002200 0.798700 -0.601800
vn -0.001700 0.832500 -0.554100
vn -0.001700 0.832000 -0.554700
vn -0.001100 0.865900 -0.500200
vn -0.001100 0.865900 -0.500300
vn -0.000600 0.897000 -0.442000
vn -0.000600 0.896800 -0.442400
vn 0.000100 0.923700 -0.383200
vn 0.000000 0.924000 -0.382500
vn 0.000600 0.947200 -0.320700
vn 0.000700 0.946900 -0.321400
vn 0.001200 0.966000 -0.258600
vn 0.001200 0.965800 -0.259300
vn 0.001700 0.980500 -0.196300
vn 0.001700 0.980200 -0.197900
vn 0.002300 0.992100 -0.125800
vn 0.002300 0.991800 -0.127900
vn 0.002900 0.998700 -0.051600
vn 0.002900 0.998600 -0.052700
vn 0.003400 0.999900 0.011600
vn 0.003400 0.999900 0.011200
vn 0.003900 0.997800 0.066700
vn 0.004200 0.993500 0.113500
vn 0.004200 0.993500 0.114100
vn 0.004500 0.988500 0.151100
vn 0.004500 0.988500 0.151500
vn 0.004800 0.983200 0.182600
vn 0.004800 0.983000 0.183300
vn 0.005400 0.964900 0.262600
vn 0.005400 0.964700 0.263200
vn 0.006100 0.930800 0.365500
vn 0.006100 0.931000 0.365000
vn 0.006600 0.896200 0.443500
vn 0.006600 0.896100 0.443900
vn 0.007000 0.858000 0.513600
vn 0.007000 0.858400 0.513000
vn 0.007400 0.813800 0.581100
vn 0.007400 0.814000 0.580900
vn 0.007800 0.758400 0.651700
vn 0.007800 0.758500 0.651700
vn 0.008200 0.684300 0.729200
vn 0.008200 0.685000 0.728500
vn 0.008400 0.603700 0.797100
vn 0.008400 0.603600 0.797200
vn 0.008600 0.532500 0.846400
vn 0.008600 0.532600 0.846300
vn 0.008700 0.461500 0.887100
vn 0.008700 0.461400 0.887100
vn 0.008700 0.392000 0.919900
vn 0.008700 0.391800 0.920000
vn 0.008700 0.327000 0.945000
vn 0.008700 0.327200 0.944900
vn 0.008700 0.268100 0.963300
vn 0.008700 0.268000 0.963400
vn 0.008600 0.216400 0.976300
vn 0.008600 0.216600 0.976200
vn 0.008400 0.141800 0.989900
vn 0.008500 0.142100 0.989800
vn 0.008200 0.050900 0.998700
vn 0.008000 -0.024300 0.999700
vn 0.007700 -0.086700 0.996200
vn 0.007500 -0.139000 0.990300
vn 0.007500 -0.139100 0.990200
vn 0.007300 -0.183600 0.983000
vn 0.007300 -0.183700 0.983000
vn 0.007100 -0.222600 0.974900
vn 0.007100 -0.222400 0.974900
vn 0.006800 -0.282000 0.959400
vn 0.006800 -0.281600 0.959500
vn 0.006300 -0.359400 0.933200
vn 0.006300 -0.359600 0.933100
vn 0.005900 -0.427000 0.904200
vn 0.005800 -0.426300 0.904600
vn 0.005400 -0.482000 0.876200
vn 0.005400 -0.481600 0.876400
vn 0.005100 -0.522300 0.852800
vn 0.005100 -0.522600 0.852600
vn 0.004900 -0.550400 0.834900
vn 0.004800 -0.550100 0.835100
vn 0.004800 -0.563700 0.826000
vn 0.008700 0.487100 0.873300
vn -1.000000 0.003400 0.008000
vn -1.000000 0.003400 0.008100
vn -1.000000 0.003300 0.008100
vn -1.000000 0.003300 0.008000
vn -1.000000 0.003600 0.008100
vn -1.000000 0.003500 0.008200
vn -1.000000 0.002900 0.007700
vn -1.000000 0.005300 0.008000
vn -1.000000 0.003800 0.008200
vn -1.000000 0.001700 0.008500
vn -1.000000 0.000000 0.006300
vn 1.000000 -0.003400 -0.008000
vn 1.000000 -0.003400 -0.008100
vn 1.000000 -0.003300 -0.008100
vn 1.000000 -0.003500 -0.008000
vn 1.000000 -0.003200 -0.008000
vn 1.000000 -0.003300 -0.008000
vn 1.000000 -0.002900 -0.008000
vn 1.000000 -0.003900 -0.007700
vn 1.000000 -0.001800 -0.008200
vn 1.000000 -0.005600 -0.007900
vn 1.000000 0.000000 -0.008100
vn 0.999900 0.000000 -0.010500
usemtl Ceramiks
s off
f 1//1 2//1 91//1
f 1//1 91//1 90//1
f 2//2 3//2 92//2
f 2//2 92//2 91//2
f 3//3 4//3 93//3
f 3//4 93//4 92//4
f 4//5 5//5 94//5
f 4//5 94//5 93//5
f 5//6 6//6 95//6
f 5//7 95//7 94//7
f 6//8 7//8 96//8
f 6//9 96//9 95//9
f 7//10 8//10 97//10
f 7//11 97//11 96//11
f 8//12 9//12 98//12
f 8//13 98//13 97//13
f 9//14 10//14 99//14
f 9//15 99//15 98//15
f 10//16 11//16 100//16
f 10//17 100//17 99//17
f 11//18 12//18 101//18
f 11//19 101//19 100//19
f 12//20 13//20 102//20
f 12//21 102//21 101//21
f 13//22 14//22 103//22
f 13//23 103//23 102//23
f 14//24 15//24 104//24
f 14//25 104//25 103//25
f 15//26 16//26 105//26
f 15//27 105//27 104//27
f 16//28 17//28 106//28
f 16//29 106//29 105//29
f 17//30 18//30 107//30
f 17//31 107//31 106//31
f 18//32 19//32 108//32
f 18//33 108//33 107//33
f 19//34 20//34 109//34
f 19//35 109//35 108//35
f 20//36 21//36 110//36
f 20//37 110//37 109//37
f 21//38 22//38 111//38
f 21//39 111//39 110//39
f 22//40 23//40 112//40
f 22//41 112//41 111//41
f 23//42 24//42 113//42
f 23//43 113//43 112//43
f 24//44 25//44 114//44
f 24//45 114//45 113//45
f 25//46 26//46 115//46
f 25//46 115//46 114//46
f 26//47 27//47 116//47
f 26//48 116//48 115//48
f 27//49 28//49 117//49
f 27//50 117//50 116//50
f 28//51 29//51 118//51
f 28//52 118//52 117//52
f 29//53 30//53 119//53
f 29//54 119//54 118//54
f 30//55 31//55 120//55
f 30//55 120//55 119//55
f 31//56 32//56 121//56
f 31//57 121//57 120//57
f 32//58 33//58 122//58
f 32//58 122//58 121//58
f 33//59 34//59 123//59
f 33//59 123//59 122//59
f 34//60 35//60 124//60
f 34//60 124//60 123//60
f 35//61 36//61 125//61
f 35//62 125//62 124//62
f 36//63 37//63 126//63
f 36//64 126//64 125//64
f 37//65 38//65 127//65
f 37//66 127//66 126//66
f 38//67 39//67 128//67
f 38//68 128//68 127//68
f 39//69 40//69 129//69
f 39//70 129//70 128//70
f 40//71 41//71 130//71
f 40//72 130//72 129//72
f 41//73 42//73 131//73
f 41//74 131//74 130//74
f 42//75 43//75 132//75
f 42//76 132//76 131//76
f 43//77 44//77 133//77
f 43//78 133//78 132//78
f 44//79 45//79 134//79
f 44//80 134//80 133//80
f 45//81 46//81 135//81
f 45//82 135//82 134//82
f 46//83 47//83 136//83
f 46//84 136//84 135//84
f 47//85 48//85 137//85
f 47//86 137//86 136//86
f 48//87 49//87 138//87
f 48//88 138//88 137//88
f 49//89 50//89 139//89
f 49//90 139//90 138//90
f 50//91 51//91 140//91
f 50//92 140//92 139//92
f 51//93 52//93 141//93
f 51//94 141//94 140//94
f 52//95 53//95 142//95
f 52//96 142//96 141//96
f 53//97 54//97 143//97
f 53//98 143//98 142//98
f 54//99 55//99 144//99
f 54//100 144//100 143//100
f 55//101 56//101 145//101
f 55//102 145//102 144//102
f 56//103 57//103 146//103
f 56//104 146//104 145//104
f 57//105 58//105 147//105
f 57//105 147//105 146//105
f 58//106 59//106 148//106
f 58//107 148//107 147//107
f 59//108 60//108 149//108
f 59//109 149//109 148//109
f 60//110 61//110 150//110
f 60//111 150//111 149//111
f 61//112 62//112 151//112
f 61//113 151//113 150//113
f 62//114 63//114 152//114
f 62//115 152//115 151//115
f 63//116 64//116 153//116
f 63//117 153//117 152//117
f 64//118 65//118 154//118
f 64//119 154//119 153//119
f 65//120 66//120 155//120
f 65//121 155//121 154//121
f 66//122 67//122 156//122
f 66//123 156//123 155//123
f 67//124 68//124 157//124
f 67//125 157//125 156//125
f 68//126 69//126 158//126
f 68//127 158//127 157//127
f 69//128 70//128 159//128
f 69//129 159//129 158//129
f 70//130 71//130 160//130
f 70//131 160//131 159//131
f 71//132 72//132 161//132
f 71//133 161//133 160//133
f 72//134 73//134 162//134
f 72//135 162//135 161//135
f 73//136 74//136 163//136
f 73//137 163//137 162//137
f 74//138 75//138 164//138
f 74//139 164//139 163//139
f 75//140 76//140 165//140
f 75//141 165//141 164//141
f 76//142 77//142 166//142
f 76//142 166//142 165//142
f 77//143 78//143 167//143
f 77//143 167//143 166//143
f 78//144 79//144 168//144
f 78//144 168//144 167//144
f 79//145 80//145 169//145
f 79//146 169//146 168//146
f 80//147 81//147 170//147
f 80//148 170//148 169//148
f 81//149 82//149 171//149
f 81//150 171//150 170//150
f 82//151 83//151 172//151
f 82//152 172//152 171//152
f 83//153 84//153 173//153
f 83//154 173//154 172//154
f 84//155 85//155 174//155
f 84//156 174//156 173//156
f 85//157 86//157 175//157
f 85//158 175//158 174//158
f 86//159 87//159 176//159
f 86//160 176//160 175//160
f 87//161 88//161 177//161
f 87//162 177//162 176//162
f 88//163 89//163 178//163
f 88//163 178//163 177//163
f 89//164 1//164 90//164
f 89//164 90//164 178//164
f 2//165 4//165 3//165
f 2//165 5//165 4//165
f 1//166 5//166 2//166
f 1//166 89//166 5//166
f 88//165 5//165 89//165
f 87//167 5//167 88//167
f 86//168 5//168 87//168
f 85//167 5//167 86//167
f 84//165 5//165 85//165
f 83//167 5//167 84//167
f 82//166 5//166 83//166
f 81//165 5//165 82//165
f 80//165 5//165 81//165
f 79//167 5//167 80//167
f 78//165 5//165 79//165
f 77//166 5//166 78//166
f 76//167 5//167 77//167
f 75//167 5//167 76//167
f 74//166 5//166 75//166
f 73//165 5//165 74//165
f 72//165 5//165 73//165
f 71//166 5//166 72//166
f 70//165 5//165 71//165
f 69//166 5//166 70//166
f 68//166 5//166 69//166
f 67//165 5//165 68//165
f 66//165 5//165 67//165
f 65//166 5//166 66//166
f 64//166 5//166 65//166
f 63//166 5//166 64//166
f 62//165 5//165 63//165
f 61//166 5//166 62//166
f 60//166 5//166 61//166
f 59//165 5//165 60//165
f 58//166 5//166 59//166
f 57//165 5//165 58//165
f 56//166 5//166 57//166
f 55//165 5//165 56//165
f 54//166 5//166 55//166
f 53//166 5//166 54//166
f 52//165 5//165 53//165
f 51//166 5//166 52//166
f 50//166 5//166 51//166
f 49//165 5//165 50//165
f 48//166 5//166 49//166
f 47//166 5//166 48//166
f 46//166 5//166 47//166
f 45//165 5//165 46//165
f 44//166 5//166 45//166
f 43//166 5//166 44//166
f 42//165 5//165 43//165
f 41//166 5//166 42//166
f 40//165 5//165 41//165
f 39//166 5//166 40//166
f 38//166 5//166 39//166
f 37//168 5//168 38//168
f 36//166 5//166 37//166
f 35//166 5//166 36//166
f 34//165 5//165 35//165
f 33//166 5//166 34//166
f 32//165 5//165 33//165
f 31//165 5//165 32//165
f 30//166 5//166 31//166
f 29//166 5//166 30//166
f 28//165 5//165 29//165
f 27//167 5//167 28//167
f 26//166 5//166 27//166
f 25//166 5//166 26//166
f 24//166 5//166 25//166
f 23//165 5//165 24//165
f 22//168 5//168 23//168
f 21//165 5//165 22//165
f 20//166 5//166 21//166
f 19//168 5//168 20//168
f 18//168 5//168 19//168
f 17//165 5//165 18//165
f 16//165 5//165 17//165
f 15//166 5//166 16//166
f 14//165 5//165 15//165
f 13//169 5//169 14//169
f 12//165 5//165 13//165
f 11//170 5//170 12//170
f 10//171 5//171 11//171
f 9//172 5//172 10//172
f 8//173 5//173 9//173
f 8//174 6//174 5//174
f 7//175 6//175 8//175
f 91//176 92//176 93//176
f 91//177 93//177 94//177
f 90//176 91//176 94//176
f 178//177 90//177 94//177
f 177//178 178//178 94//178
f 176//179 177//179 94//179
f 175//180 176//180 94//180
f 174//181 175//181 94//181
f 173//177 174//177 94//177
f 172//176 173//176 94//176
f 171//178 172//178 94//178
f 170//176 171//176 94//176
f 169//177 170//177 94//177
f 168//176 169//176 94//176
f 167//177 168//177 94//177
f 166//177 167//177 94//177
f 165//177 166//177 94//177
f 164//181 165//181 94//181
f 163//176 164//176 94//176
f 162//177 163//177 94//177
f 161//176 162//176 94//176
f 160//178 161//178 94//178
f 159//176 160//176 94//176
f 158//177 159//177 94//177
f 157//176 158//176 94//176
f 156//177 157//177 94//177
f 155//176 156//176 94//176
f 154//177 155//177 94//177
f 153//177 154//177 94//177
f 152//177 153//177 94//177
f 151//176 152//176 94//176
f 150//177 151//177 94//177
f 149//176 150//176 94//176
f 148//177 149//177 94//177
f 147//176 148//176 94//176
f 146//177 147//177 94//177
f 145//176 146//176 94//176
f 144//177 145//177 94//177
f 143//176 144//176 94//176
f 142//177 143//177 94//177
f 141//177 142//177 94//177
f 140//176 141//176 94//176
f 139//177 140//177 94//177
f 138//177 139//177 94//177
f 137//177 138//177 94//177
f 136//176 137//176 94//176
f 135//177 136//177 94//177
f 134//177 135//177 94//177
f 133//177 134//177 94//177
f 132//177 133//177 94//177
f 131//177 132//177 94//177
f 130//176 131//176 94//176
f 129//181 130//181 94//181
f 128//177 129//177 94//177
f 127//176 128//176 94//176
f 126//177 127//177 94//177
f 125//181 126//181 94//181
f 124//176 125//176 94//176
f 123//177 124//177 94//177
f 122//176 123//176 94//176
f 121//176 122//176 94//176
f 120//177 121//177 94//177
f 119//177 120//177 94//177
f 118//177 119//177 94//177
f 117//177 118//177 94//177
f 116//178 117//178 94//178
f 115//176 116//176 94//176
f 114//177 115//177 94//177
f 113//177 114//177 94//177
f 112//176 113//176 94//176
f 111//177 112//177 94//177
f 110//176 111//176 94//176
f 109//177 110//177 94//177
f 108//176 109//176 94//176
f 107//178 108//178 94//178
f 106//176 107//176 94//176
f 105//176 106//176 94//176
f 104//177 105//177 94//177
f 103//176 104//176 94//176
f 102//177 103//177 94//177
f 101//176 102//176 94//176
f 100//182 101//182 94//182
f 99//183 100//183 94//183
f 98//184 99//184 94//184
f 97//185 98//185 94//185
f 97//186 94//186 95//186
f 96//187 97//187 95//187
