# Blender v2.76 (sub 0) OBJ File: 'scene merged.blend'
# www.blender.org
mtllib spotlight.mtl
o spotLight_Cylinder.003
v 1.487098 2.840225 1.197213
v 1.515319 2.841894 1.196606
v 1.543095 2.846873 1.194793
v 1.569988 2.855084 1.191805
v 1.595574 2.866397 1.187687
v 1.619449 2.880635 1.182505
v 1.641236 2.897573 1.176340
v 1.660593 2.916942 1.169290
v 1.677214 2.938439 1.161466
v 1.690837 2.961724 1.152991
v 1.701246 2.986430 1.143999
v 1.708278 3.012167 1.134632
v 1.711822 3.038529 1.125036
v 1.711822 3.065100 1.115365
v 1.708278 3.091462 1.105770
v 1.701246 3.117199 1.096403
v 1.690836 3.141905 1.087411
v 1.677214 3.165190 1.078936
v 1.660593 3.186686 1.071111
v 1.641236 3.206056 1.064061
v 1.619449 3.222994 1.057897
v 1.595574 3.237231 1.052715
v 1.569988 3.248545 1.048597
v 1.543095 3.256756 1.045608
v 1.515319 3.261735 1.043796
v 1.487098 3.263403 1.043189
v 1.458877 3.261735 1.043796
v 1.431101 3.256756 1.045608
v 1.404208 3.248545 1.048597
v 1.378622 3.237231 1.052715
v 1.354747 3.222993 1.057897
v 1.332960 3.206056 1.064062
v 1.313603 3.186686 1.071112
v 1.296982 3.165189 1.078936
v 1.283360 3.141904 1.087411
v 1.272950 3.117199 1.096403
v 1.265918 3.091462 1.105770
v 1.262374 3.065100 1.115365
v 1.262374 3.038528 1.125037
v 1.265918 3.012166 1.134632
v 1.272950 2.986429 1.143999
v 1.283360 2.961724 1.152991
v 1.296982 2.938439 1.161466
v 1.313603 2.916942 1.169290
v 1.332960 2.897572 1.176340
v 1.354748 2.880635 1.182505
v 1.378623 2.866397 1.187687
v 1.404209 2.855084 1.191805
v 1.431101 2.846873 1.194794
v 1.458877 2.841894 1.196606
vn 0.000000 -0.342000 -0.939700
vn 0.000000 -0.342100 -0.939700
vn -0.000100 -0.342100 -0.939700
vn -0.000100 -0.342000 -0.939700
usemtl None
s off
f 49//1 33//1 9//1
f 3//2 2//2 1//2
f 1//2 50//2 49//2
f 49//2 48//2 47//2
f 47//1 46//1 45//1
f 45//1 44//1 41//1
f 43//2 42//2 41//2
f 41//3 40//3 39//3
f 39//1 38//1 41//1
f 37//1 36//1 35//1
f 35//1 34//1 37//1
f 33//1 32//1 31//1
f 31//1 30//1 33//1
f 29//1 28//1 25//1
f 27//1 26//1 25//1
f 25//1 24//1 21//1
f 23//2 22//2 21//2
f 21//1 20//1 17//1
f 19//1 18//1 17//1
f 17//1 16//1 15//1
f 15//1 14//1 13//1
f 13//1 12//1 9//1
f 11//1 10//1 9//1
f 9//1 8//1 5//1
f 7//2 6//2 5//2
f 5//3 4//3 3//3
f 3//1 1//1 5//1
f 49//1 47//1 41//1
f 44//1 43//1 41//1
f 41//1 38//1 37//1
f 37//1 34//1 33//1
f 33//1 30//1 29//1
f 28//1 27//1 25//1
f 24//1 23//1 21//1
f 20//1 19//1 17//1
f 17//1 15//1 9//1
f 12//4 11//4 9//4
f 8//1 7//1 5//1
f 5//1 1//1 49//1
f 47//1 45//1 41//1
f 41//1 37//1 33//1
f 33//1 29//1 17//1
f 25//1 21//1 17//1
f 15//1 13//1 9//1
f 9//1 5//1 49//1
f 49//1 41//1 33//1
f 29//1 25//1 17//1
f 17//1 9//1 33//1
