# Blender v2.76 (sub 0) OBJ File: 'scene merged.blend'
# www.blender.org
mtllib table.mtl
o table_Plane.012
v 0.632088 1.062525 2.019218
v 2.284332 1.062525 2.019218
v 0.632088 1.062525 -2.019218
v 2.284332 1.062525 -2.019218
v 0.632088 1.130501 -2.019218
v 0.632088 1.130501 2.019218
v 2.284332 1.130501 2.019218
v 2.284332 1.130501 -2.019218
vn 0.000000 -1.000000 0.000000
vn 0.000000 1.000000 0.000000
vn 1.000000 0.000000 0.000000
vn -1.000000 0.000000 0.000000
vn 0.000000 0.000000 -1.000000
vn 0.000000 0.000000 1.000000
usemtl None
s off
f 3//1 4//1 2//1
f 7//2 8//2 5//2
f 4//3 8//3 7//3
f 1//4 6//4 5//4
f 3//5 5//5 8//5
f 2//6 7//6 6//6
f 1//1 3//1 2//1
f 6//2 7//2 5//2
f 2//3 4//3 7//3
f 3//4 1//4 5//4
f 4//5 3//5 8//5
f 1//6 2//6 6//6
