# Blender v2.76 (sub 0) OBJ File: 'scene merged.blend'
# www.blender.org
mtllib topLampLeft.mtl
o lampCover_Cone
v 2.041647 4.423668 1.726822
v 2.228057 4.423668 1.745182
v 2.407303 4.423668 1.799555
v 2.572497 4.423668 1.887854
v 2.717291 4.423668 2.006683
v 2.836120 4.423668 2.151476
v 2.924418 4.423668 2.316670
v 2.978792 4.423668 2.495917
v 2.997152 4.423668 2.682326
v 2.041647 5.030112 2.682326
v 2.978792 4.423668 2.868736
v 2.924418 4.423668 3.047982
v 2.836120 4.423668 3.213176
v 2.717291 4.423668 3.357970
v 2.572497 4.423668 3.476799
v 2.407303 4.423668 3.565097
v 2.228057 4.423668 3.619471
v 2.041647 4.423668 3.637830
v 1.855237 4.423668 3.619470
v 1.675992 4.423668 3.565097
v 1.510798 4.423668 3.476799
v 1.366004 4.423668 3.357969
v 1.247175 4.423668 3.213175
v 1.158876 4.423668 3.047981
v 1.104503 4.423668 2.868735
v 1.086143 4.423668 2.682325
v 1.104503 4.423668 2.495916
v 1.158877 4.423668 2.316669
v 1.247175 4.423668 2.151476
v 1.366005 4.423668 2.006682
v 1.510799 4.423668 1.887853
v 1.675993 4.423668 1.799555
v 1.855239 4.423668 1.745182
v 2.041647 4.417264 1.682326
v 2.236738 4.417264 1.701541
v 2.424331 4.417264 1.758446
v 2.597218 4.417264 1.850857
v 2.748754 4.417264 1.975219
v 2.873117 4.417264 2.126756
v 2.965527 4.417264 2.299643
v 3.022433 4.417264 2.487236
v 3.041647 4.417264 2.682326
v 2.041647 5.051949 2.682326
v 3.022433 4.417264 2.877416
v 2.965527 4.417264 3.065009
v 2.873117 4.417264 3.237896
v 2.748754 4.417264 3.389433
v 2.597218 4.417264 3.513796
v 2.424331 4.417264 3.606206
v 2.236737 4.417264 3.663111
v 2.041647 4.417264 3.682326
v 1.846557 4.417264 3.663111
v 1.658964 4.417264 3.606205
v 1.486077 4.417264 3.513795
v 1.334540 4.417264 3.389432
v 1.210177 4.417264 3.237896
v 1.117768 4.417264 3.065009
v 1.060862 4.417264 2.877415
v 1.041647 4.417264 2.682325
v 1.060862 4.417264 2.487235
v 1.117768 4.417264 2.299642
v 1.210178 4.417264 2.126755
v 1.334542 4.417264 1.975219
v 1.486078 4.417264 1.850856
v 1.658965 4.417264 1.758446
v 1.846559 4.417264 1.701541
vn 0.156100 -0.843100 0.514600
vn -0.052700 -0.843100 0.535100
vn 0.253500 -0.843100 0.474200
vn 0.341100 -0.843100 0.415700
vn 0.415700 -0.843100 0.341100
vn 0.474200 -0.843100 0.253500
vn 0.514600 -0.843100 0.156100
vn 0.535100 -0.843100 0.052700
vn 0.535100 -0.843100 -0.052700
vn 0.514600 -0.843100 -0.156100
vn 0.474200 -0.843100 -0.253500
vn 0.415700 -0.843100 -0.341100
vn 0.341100 -0.843100 -0.415700
vn 0.253500 -0.843100 -0.474200
vn 0.156100 -0.843100 -0.514600
vn 0.052700 -0.843100 -0.535100
vn -0.052700 -0.843100 -0.535100
vn -0.156100 -0.843100 -0.514600
vn -0.253500 -0.843100 -0.474200
vn -0.341100 -0.843100 -0.415700
vn -0.415700 -0.843100 -0.341100
vn -0.474200 -0.843100 -0.253500
vn -0.514600 -0.843100 -0.156100
vn -0.535100 -0.843100 -0.052700
vn -0.535100 -0.843100 0.052700
vn -0.514600 -0.843100 0.156100
vn -0.474200 -0.843100 0.253500
vn -0.415700 -0.843100 0.341100
vn -0.341100 -0.843100 0.415700
vn -0.253500 -0.843100 0.474200
vn 0.052700 -0.843100 0.535100
vn -0.156100 -0.843100 0.514600
vn -0.156100 0.843100 -0.514600
vn 0.052700 0.843100 -0.535100
vn -0.253500 0.843100 -0.474200
vn -0.341100 0.843100 -0.415700
vn -0.415700 0.843100 -0.341100
vn -0.474200 0.843100 -0.253500
vn -0.514600 0.843100 -0.156100
vn -0.535100 0.843100 -0.052700
vn -0.535100 0.843100 0.052700
vn -0.514600 0.843100 0.156100
vn -0.474200 0.843100 0.253500
vn -0.415700 0.843100 0.341100
vn -0.341100 0.843100 0.415700
vn -0.253500 0.843100 0.474200
vn -0.156100 0.843100 0.514600
vn -0.052700 0.843100 0.535100
vn 0.052700 0.843100 0.535100
vn 0.156100 0.843100 0.514600
vn 0.253500 0.843100 0.474200
vn 0.341100 0.843100 0.415700
vn 0.415700 0.843100 0.341100
vn 0.474200 0.843100 0.253500
vn 0.514600 0.843100 0.156100
vn 0.535100 0.843100 0.052700
vn 0.535100 0.843100 -0.052700
vn 0.514600 0.843100 -0.156100
vn 0.474200 0.843100 -0.253500
vn 0.415700 0.843100 -0.341100
vn 0.341100 0.843100 -0.415700
vn 0.253500 0.843100 -0.474200
vn -0.052700 0.843100 -0.535100
vn 0.156100 0.843100 -0.514600
vn 0.041600 -0.989700 0.137000
vn -0.041600 -0.989700 -0.137000
vn 0.142500 -0.989700 -0.014000
vn -0.137000 -0.989700 0.041500
vn 0.142500 -0.989700 0.014000
vn -0.137000 -0.989700 0.041600
vn -0.126200 -0.989700 0.067500
vn 0.137000 -0.989700 0.041600
vn -0.110600 -0.989700 0.090800
vn 0.126200 -0.989700 0.067500
vn 0.137000 -0.989700 0.041500
vn -0.090800 -0.989700 0.110600
vn 0.110600 -0.989700 0.090800
vn -0.090800 -0.989700 0.110700
vn -0.067500 -0.989700 0.126200
vn 0.090800 -0.989700 0.110600
vn -0.041600 -0.989700 0.137000
vn 0.067500 -0.989700 0.126200
vn 0.090800 -0.989700 0.110700
vn -0.014000 -0.989700 0.142400
vn -0.014000 -0.989700 0.142500
vn 0.014000 -0.989700 0.142500
vn 0.067500 -0.989700 0.126300
vn 0.014000 -0.989700 0.142400
vn -0.142500 -0.989700 0.014000
vn 0.137000 -0.989700 -0.041500
vn -0.142500 -0.989700 -0.014000
vn 0.137000 -0.989700 -0.041600
vn 0.126200 -0.989700 -0.067500
vn -0.137000 -0.989700 -0.041500
vn -0.142400 -0.989700 -0.014000
vn 0.110600 -0.989700 -0.090800
vn -0.126200 -0.989700 -0.067500
vn -0.137000 -0.989700 -0.041600
vn 0.090800 -0.989700 -0.110600
vn -0.110600 -0.989700 -0.090800
vn 0.090800 -0.989700 -0.110700
vn 0.067500 -0.989700 -0.126200
vn -0.090800 -0.989700 -0.110600
vn 0.067500 -0.989700 -0.126300
vn -0.110700 -0.989700 -0.090800
vn 0.041600 -0.989700 -0.137000
vn -0.067500 -0.989700 -0.126200
vn -0.090800 -0.989700 -0.110700
vn 0.014000 -0.989700 -0.142400
vn 0.014000 -0.989700 -0.142500
vn -0.014000 -0.989700 -0.142500
vn -0.067500 -0.989700 -0.126300
vn -0.014000 -0.989700 -0.142400
usemtl None
s off
f 32//1 33//1 10//1
f 1//2 2//2 10//2
f 31//3 32//3 10//3
f 30//4 31//4 10//4
f 29//5 30//5 10//5
f 28//6 29//6 10//6
f 27//7 28//7 10//7
f 26//8 27//8 10//8
f 25//9 26//9 10//9
f 24//10 25//10 10//10
f 23//11 24//11 10//11
f 22//12 23//12 10//12
f 21//13 22//13 10//13
f 20//14 21//14 10//14
f 19//15 20//15 10//15
f 18//16 19//16 10//16
f 17//17 18//17 10//17
f 16//18 17//18 10//18
f 15//19 16//19 10//19
f 14//20 15//20 10//20
f 13//21 14//21 10//21
f 12//22 13//22 10//22
f 11//23 12//23 10//23
f 9//24 11//24 10//24
f 8//25 9//25 10//25
f 7//26 8//26 10//26
f 6//27 7//27 10//27
f 5//28 6//28 10//28
f 4//29 5//29 10//29
f 3//30 4//30 10//30
f 33//31 1//31 10//31
f 2//32 3//32 10//32
f 65//33 43//33 66//33
f 34//34 43//34 35//34
f 64//35 43//35 65//35
f 63//36 43//36 64//36
f 62//37 43//37 63//37
f 61//38 43//38 62//38
f 60//39 43//39 61//39
f 59//40 43//40 60//40
f 58//41 43//41 59//41
f 57//42 43//42 58//42
f 56//43 43//43 57//43
f 55//44 43//44 56//44
f 54//45 43//45 55//45
f 53//46 43//46 54//46
f 52//47 43//47 53//47
f 51//48 43//48 52//48
f 50//49 43//49 51//49
f 49//50 43//50 50//50
f 48//51 43//51 49//51
f 47//52 43//52 48//52
f 46//53 43//53 47//53
f 45//54 43//54 46//54
f 44//55 43//55 45//55
f 42//56 43//56 44//56
f 41//57 43//57 42//57
f 40//58 43//58 41//58
f 39//59 43//59 40//59
f 38//60 43//60 39//60
f 37//61 43//61 38//61
f 36//62 43//62 37//62
f 66//63 43//63 34//63
f 35//64 43//64 36//64
f 33//65 65//65 66//65
f 49//66 50//66 17//66
f 26//67 25//67 58//67
f 41//68 8//68 7//68
f 27//69 26//69 59//69
f 41//70 7//70 40//70
f 26//67 58//67 59//67
f 40//71 7//71 6//71
f 28//72 27//72 60//72
f 40//71 6//71 39//71
f 27//69 59//69 60//69
f 39//73 6//73 5//73
f 29//74 28//74 61//74
f 39//73 5//73 38//73
f 28//75 60//75 61//75
f 38//76 5//76 4//76
f 30//77 29//77 62//77
f 38//78 4//78 37//78
f 29//74 61//74 62//74
f 37//79 4//79 3//79
f 31//80 30//80 63//80
f 37//79 3//79 36//79
f 30//77 62//77 63//77
f 36//81 3//81 2//81
f 32//82 31//82 64//82
f 36//81 2//81 35//81
f 31//83 63//83 64//83
f 35//84 2//84 1//84
f 33//65 32//65 65//65
f 35//85 1//85 34//85
f 66//86 34//86 33//86
f 64//87 65//87 32//87
f 34//88 1//88 33//88
f 9//89 8//89 41//89
f 58//90 25//90 24//90
f 11//91 9//91 42//91
f 58//92 24//92 57//92
f 9//89 41//89 42//89
f 57//93 24//93 23//93
f 12//94 11//94 44//94
f 57//93 23//93 56//93
f 11//95 42//95 44//95
f 56//96 23//96 22//96
f 13//97 12//97 45//97
f 56//96 22//96 55//96
f 12//98 44//98 45//98
f 55//99 22//99 21//99
f 14//100 13//100 46//100
f 55//101 21//101 54//101
f 13//97 45//97 46//97
f 54//102 21//102 20//102
f 15//103 14//103 47//103
f 54//104 20//104 53//104
f 14//105 46//105 47//105
f 53//106 20//106 19//106
f 16//107 15//107 48//107
f 53//106 19//106 52//106
f 15//108 47//108 48//108
f 52//109 19//109 18//109
f 17//66 16//66 49//66
f 52//110 18//110 51//110
f 50//111 51//111 17//111
f 48//112 49//112 16//112
f 51//113 18//113 17//113
