# Blender v2.76 (sub 0) OBJ File: 'scene merged.blend'
# www.blender.org
mtllib topLampRight.mtl
o lampCover.001_Cone.002
v 2.041647 4.423668 -4.687054
v 2.228057 4.423668 -4.668694
v 2.407303 4.423668 -4.614321
v 2.572497 4.423668 -4.526022
v 2.717291 4.423668 -4.407193
v 2.836120 4.423668 -4.262400
v 2.924418 4.423668 -4.097206
v 2.978792 4.423668 -3.917959
v 2.997152 4.423668 -3.731550
v 2.041647 5.030112 -3.731550
v 2.978792 4.423668 -3.545140
v 2.924418 4.423668 -3.365895
v 2.836120 4.423668 -3.200700
v 2.717291 4.423668 -3.055906
v 2.572497 4.423668 -2.937077
v 2.407303 4.423668 -2.848779
v 2.228057 4.423668 -2.794405
v 2.041647 4.423668 -2.776046
v 1.855237 4.423668 -2.794406
v 1.675992 4.423668 -2.848779
v 1.510798 4.423668 -2.937078
v 1.366004 4.423668 -3.055907
v 1.247175 4.423668 -3.200701
v 1.158876 4.423668 -3.365895
v 1.104503 4.423668 -3.545141
v 1.086143 4.423668 -3.731551
v 1.104503 4.423668 -3.917960
v 1.158877 4.423668 -4.097207
v 1.247175 4.423668 -4.262401
v 1.366005 4.423668 -4.407194
v 1.510799 4.423668 -4.526023
v 1.675993 4.423668 -4.614321
v 1.855239 4.423668 -4.668694
v 2.041647 4.417264 -4.731550
v 2.236738 4.417264 -4.712336
v 2.424331 4.417264 -4.655430
v 2.597218 4.417264 -4.563020
v 2.748754 4.417264 -4.438657
v 2.873117 4.417264 -4.287120
v 2.965527 4.417264 -4.114233
v 3.022433 4.417264 -3.926640
v 3.041647 4.417264 -3.731550
v 2.041647 5.051949 -3.731550
v 3.022433 4.417264 -3.536460
v 2.965527 4.417264 -3.348867
v 2.873117 4.417264 -3.175980
v 2.748754 4.417264 -3.024443
v 2.597218 4.417264 -2.900080
v 2.424331 4.417264 -2.807670
v 2.236737 4.417264 -2.750765
v 2.041647 4.417264 -2.731550
v 1.846557 4.417264 -2.750765
v 1.658964 4.417264 -2.807671
v 1.486077 4.417264 -2.900081
v 1.334540 4.417264 -3.024444
v 1.210177 4.417264 -3.175980
v 1.117768 4.417264 -3.348867
v 1.060862 4.417264 -3.536461
v 1.041647 4.417264 -3.731551
v 1.060862 4.417264 -3.926641
v 1.117768 4.417264 -4.114234
v 1.210178 4.417264 -4.287121
v 1.334542 4.417264 -4.438658
v 1.486078 4.417264 -4.563021
v 1.658965 4.417264 -4.655430
v 1.846559 4.417264 -4.712336
vn 0.156100 -0.843100 0.514600
vn -0.052700 -0.843100 0.535100
vn 0.253500 -0.843100 0.474200
vn 0.341100 -0.843100 0.415700
vn 0.415700 -0.843100 0.341100
vn 0.474200 -0.843100 0.253500
vn 0.514600 -0.843100 0.156100
vn 0.535100 -0.843100 0.052700
vn 0.535100 -0.843100 -0.052700
vn 0.514600 -0.843100 -0.156100
vn 0.474200 -0.843100 -0.253500
vn 0.415700 -0.843100 -0.341100
vn 0.341100 -0.843100 -0.415700
vn 0.253500 -0.843100 -0.474200
vn 0.156100 -0.843100 -0.514600
vn 0.052700 -0.843100 -0.535100
vn -0.052700 -0.843100 -0.535100
vn -0.156100 -0.843100 -0.514600
vn -0.253500 -0.843100 -0.474200
vn -0.341100 -0.843100 -0.415700
vn -0.415700 -0.843100 -0.341100
vn -0.474200 -0.843100 -0.253500
vn -0.514600 -0.843100 -0.156100
vn -0.535100 -0.843100 -0.052700
vn -0.535100 -0.843100 0.052700
vn -0.514600 -0.843100 0.156100
vn -0.474200 -0.843100 0.253500
vn -0.415700 -0.843100 0.341100
vn -0.341100 -0.843100 0.415700
vn -0.253500 -0.843100 0.474200
vn 0.052700 -0.843100 0.535100
vn -0.156100 -0.843100 0.514600
vn -0.156100 0.843100 -0.514600
vn 0.052700 0.843100 -0.535100
vn -0.253500 0.843100 -0.474200
vn -0.341100 0.843100 -0.415700
vn -0.415700 0.843100 -0.341100
vn -0.474200 0.843100 -0.253500
vn -0.514600 0.843100 -0.156100
vn -0.535100 0.843100 -0.052700
vn -0.535100 0.843100 0.052700
vn -0.514600 0.843100 0.156100
vn -0.474200 0.843100 0.253500
vn -0.415700 0.843100 0.341100
vn -0.341100 0.843100 0.415700
vn -0.253500 0.843100 0.474200
vn -0.156100 0.843100 0.514600
vn -0.052700 0.843100 0.535100
vn 0.052700 0.843100 0.535100
vn 0.156100 0.843100 0.514600
vn 0.253500 0.843100 0.474200
vn 0.341100 0.843100 0.415700
vn 0.415700 0.843100 0.341100
vn 0.474200 0.843100 0.253500
vn 0.514600 0.843100 0.156100
vn 0.535100 0.843100 0.052700
vn 0.535100 0.843100 -0.052700
vn 0.514600 0.843100 -0.156100
vn 0.474200 0.843100 -0.253500
vn 0.415700 0.843100 -0.341100
vn 0.341100 0.843100 -0.415700
vn 0.253500 0.843100 -0.474200
vn -0.052700 0.843100 -0.535100
vn 0.156100 0.843100 -0.514600
vn 0.041600 -0.989700 0.137000
vn -0.041600 -0.989700 -0.137000
vn 0.142500 -0.989700 -0.014000
vn -0.137000 -0.989700 0.041500
vn 0.142500 -0.989700 0.014000
vn -0.137000 -0.989700 0.041600
vn -0.126200 -0.989700 0.067500
vn 0.137000 -0.989700 0.041600
vn -0.110700 -0.989700 0.090800
vn 0.126200 -0.989700 0.067500
vn -0.110600 -0.989700 0.090800
vn 0.137000 -0.989700 0.041500
vn -0.090800 -0.989700 0.110600
vn 0.110600 -0.989700 0.090800
vn -0.090800 -0.989700 0.110700
vn -0.067500 -0.989700 0.126200
vn 0.090800 -0.989700 0.110600
vn -0.041600 -0.989700 0.137000
vn 0.067500 -0.989700 0.126200
vn 0.090800 -0.989700 0.110700
vn -0.014000 -0.989700 0.142400
vn -0.014000 -0.989700 0.142500
vn 0.014000 -0.989700 0.142500
vn 0.067500 -0.989700 0.126300
vn 0.014000 -0.989700 0.142400
vn -0.142500 -0.989700 0.014000
vn 0.137000 -0.989700 -0.041500
vn -0.142500 -0.989700 -0.014000
vn 0.137000 -0.989700 -0.041600
vn 0.126200 -0.989700 -0.067500
vn -0.137000 -0.989700 -0.041500
vn -0.142400 -0.989700 -0.014000
vn 0.110600 -0.989700 -0.090800
vn -0.126200 -0.989700 -0.067500
vn -0.137000 -0.989700 -0.041600
vn 0.090800 -0.989700 -0.110600
vn -0.110600 -0.989700 -0.090800
vn 0.090800 -0.989700 -0.110700
vn 0.067500 -0.989700 -0.126200
vn -0.090800 -0.989700 -0.110600
vn 0.067500 -0.989700 -0.126300
vn -0.110700 -0.989700 -0.090800
vn 0.041600 -0.989700 -0.137000
vn -0.067500 -0.989700 -0.126200
vn -0.090800 -0.989700 -0.110700
vn 0.014000 -0.989700 -0.142400
vn 0.014000 -0.989700 -0.142500
vn -0.014000 -0.989700 -0.142500
vn -0.067500 -0.989700 -0.126300
vn -0.014000 -0.989700 -0.142400
usemtl None
s off
f 32//1 33//1 10//1
f 1//2 2//2 10//2
f 31//3 32//3 10//3
f 30//4 31//4 10//4
f 29//5 30//5 10//5
f 28//6 29//6 10//6
f 27//7 28//7 10//7
f 26//8 27//8 10//8
f 25//9 26//9 10//9
f 24//10 25//10 10//10
f 23//11 24//11 10//11
f 22//12 23//12 10//12
f 21//13 22//13 10//13
f 20//14 21//14 10//14
f 19//15 20//15 10//15
f 18//16 19//16 10//16
f 17//17 18//17 10//17
f 16//18 17//18 10//18
f 15//19 16//19 10//19
f 14//20 15//20 10//20
f 13//21 14//21 10//21
f 12//22 13//22 10//22
f 11//23 12//23 10//23
f 9//24 11//24 10//24
f 8//25 9//25 10//25
f 7//26 8//26 10//26
f 6//27 7//27 10//27
f 5//28 6//28 10//28
f 4//29 5//29 10//29
f 3//30 4//30 10//30
f 33//31 1//31 10//31
f 2//32 3//32 10//32
f 65//33 43//33 66//33
f 34//34 43//34 35//34
f 64//35 43//35 65//35
f 63//36 43//36 64//36
f 62//37 43//37 63//37
f 61//38 43//38 62//38
f 60//39 43//39 61//39
f 59//40 43//40 60//40
f 58//41 43//41 59//41
f 57//42 43//42 58//42
f 56//43 43//43 57//43
f 55//44 43//44 56//44
f 54//45 43//45 55//45
f 53//46 43//46 54//46
f 52//47 43//47 53//47
f 51//48 43//48 52//48
f 50//49 43//49 51//49
f 49//50 43//50 50//50
f 48//51 43//51 49//51
f 47//52 43//52 48//52
f 46//53 43//53 47//53
f 45//54 43//54 46//54
f 44//55 43//55 45//55
f 42//56 43//56 44//56
f 41//57 43//57 42//57
f 40//58 43//58 41//58
f 39//59 43//59 40//59
f 38//60 43//60 39//60
f 37//61 43//61 38//61
f 36//62 43//62 37//62
f 66//63 43//63 34//63
f 35//64 43//64 36//64
f 33//65 65//65 66//65
f 49//66 50//66 17//66
f 26//67 25//67 58//67
f 41//68 8//68 7//68
f 27//69 26//69 59//69
f 41//70 7//70 40//70
f 26//67 58//67 59//67
f 40//71 7//71 6//71
f 28//72 27//72 60//72
f 40//71 6//71 39//71
f 27//69 59//69 60//69
f 39//73 6//73 5//73
f 29//74 28//74 61//74
f 39//75 5//75 38//75
f 28//76 60//76 61//76
f 38//77 5//77 4//77
f 30//78 29//78 62//78
f 38//79 4//79 37//79
f 29//74 61//74 62//74
f 37//80 4//80 3//80
f 31//81 30//81 63//81
f 37//80 3//80 36//80
f 30//78 62//78 63//78
f 36//82 3//82 2//82
f 32//83 31//83 64//83
f 36//82 2//82 35//82
f 31//84 63//84 64//84
f 35//85 2//85 1//85
f 33//65 32//65 65//65
f 35//86 1//86 34//86
f 66//87 34//87 33//87
f 64//88 65//88 32//88
f 34//89 1//89 33//89
f 9//90 8//90 41//90
f 58//91 25//91 24//91
f 11//92 9//92 42//92
f 58//93 24//93 57//93
f 9//90 41//90 42//90
f 57//94 24//94 23//94
f 12//95 11//95 44//95
f 57//94 23//94 56//94
f 11//96 42//96 44//96
f 56//97 23//97 22//97
f 13//98 12//98 45//98
f 56//97 22//97 55//97
f 12//99 44//99 45//99
f 55//100 22//100 21//100
f 14//101 13//101 46//101
f 55//102 21//102 54//102
f 13//98 45//98 46//98
f 54//103 21//103 20//103
f 15//104 14//104 47//104
f 54//105 20//105 53//105
f 14//106 46//106 47//106
f 53//107 20//107 19//107
f 16//108 15//108 48//108
f 53//107 19//107 52//107
f 15//109 47//109 48//109
f 52//110 19//110 18//110
f 17//66 16//66 49//66
f 52//111 18//111 51//111
f 50//112 51//112 17//112
f 48//113 49//113 16//113
f 51//114 18//114 17//114
